{"glyphs":{"0":{"ha":733,"x_min":0,"x_max":0,"o":"m 651 182 b 654 400 675 253 674 329 b 594 529 642 446 621 490 b 399 694 544 603 483 667 b 240 671 347 693 290 689 b 124 575 193 653 151 624 b 61 489 85 563 107 510 b 39 371 51 451 43 411 b 44 238 36 326 36 282 b 151 90 57 176 100 128 b 281 17 192 58 239 35 l 289 24 b 376 24 321 6 349 26 b 422 17 390 0 407 42 b 650 182 503 42 617 82 z m 524 354 b 508 229 518 314 538 271 b 428 149 501 188 454 175 b 258 164 371 151 308 143 b 193 229 233 176 210 196 b 206 418 172 289 179 356 b 310 558 229 471 265 519 b 428 528 349 544 383 524 b 524 354 472 483 518 424 z "},"1":{"ha":317,"x_min":0,"x_max":0,"o":"m 236 96 b 221 182 229 125 250 163 b 218 592 215 321 189 449 b 119 646 206 625 164 654 b 86 426 25 606 97 500 b 86 394 89 415 68 403 b 86 136 86 308 86 222 b 172 49 104 94 132 67 l 236 96 z "},"2":{"ha":639,"x_min":0,"x_max":0,"o":"m 610 122 b 578 210 632 156 603 188 b 522 193 560 226 536 211 b 388 289 475 217 410 238 b 396 453 439 342 360 393 b 382 500 392 468 371 489 b 279 633 360 557 326 589 b 185 618 247 651 213 635 b 50 539 131 610 93 567 b 74 467 21 510 68 492 b 185 454 110 442 139 456 l 185 468 b 264 499 210 478 228 514 b 288 326 307 456 279 383 b 200 272 282 272 218 315 b 67 210 151 263 113 232 b 43 67 44 167 22 115 b 115 11 64 40 92 29 b 217 36 147 44 192 -19 b 358 154 286 38 304 119 l 382 131 b 475 99 422 144 444 110 b 608 122 518 83 575 89 z "},"3":{"ha":583,"x_min":0,"x_max":0,"o":"m 492 657 l 461 704 b 200 674 363 721 288 679 b 19 617 140 653 53 686 b 51 546 -6 588 47 565 b 264 554 117 469 192 579 b 217 490 263 518 235 518 b 129 397 204 439 156 444 b 185 296 108 333 181 351 b 294 311 226 289 257 304 b 357 225 340 307 353 264 b 279 75 365 161 321 111 b 239 68 265 99 256 65 b 99 113 196 90 153 138 b 131 4 78 67 101 39 b 310 -43 192 -4 239 -100 b 428 36 363 -50 385 18 b 468 311 478 113 501 218 b 350 429 479 390 389 388 b 493 657 358 535 533 540 z "},"4":{"ha":547,"x_min":0,"x_max":0,"o":"m 469 51 b 438 493 422 193 463 342 b 439 611 472 526 442 572 b 360 625 413 617 381 651 b 313 408 207 601 343 494 b 203 400 285 382 233 390 b 219 500 197 439 213 468 b 210 660 203 549 246 613 b 115 674 171 644 154 690 b 68 590 72 650 65 621 b 68 456 71 549 92 503 b 36 344 58 417 58 375 b 85 250 28 303 50 265 l 92 257 b 107 250 99 260 103 254 l 115 257 b 224 250 158 260 188 254 l 250 272 b 311 258 271 268 300 288 b 311 186 324 238 324 207 b 343 -3 340 121 289 50 b 444 -18 375 -24 407 -28 b 469 51 458 3 479 24 z "},"5":{"ha":553,"x_min":0,"x_max":0,"o":"m 485 586 l 438 642 b 288 618 388 633 322 661 b 89 603 222 611 144 631 b 99 413 33 543 99 476 b 76 335 99 383 63 369 b 168 272 94 300 128 269 b 240 311 189 297 219 285 b 342 264 285 322 314 294 b 311 153 344 221 344 181 b 138 121 254 96 185 203 b 232 36 138 64 201 67 b 444 121 326 6 393 81 b 438 350 486 186 486 286 b 263 404 388 390 333 417 b 225 468 246 421 211 435 b 294 515 240 499 275 490 b 436 515 346 529 385 525 b 483 586 456 531 501 549 z "},"6":{"ha":481,"x_min":0,"x_max":0,"o":"m 51 229 b 178 38 71 156 131 93 b 318 50 228 26 278 14 b 436 297 358 131 440 194 b 372 368 415 321 407 364 b 219 408 349 435 268 408 b 168 396 204 400 188 383 b 246 565 154 469 218 510 l 254 564 l 263 601 b 374 746 307 643 365 686 b 315 806 368 775 340 796 b 149 668 213 824 221 701 b 56 476 118 606 81 542 b 51 229 24 397 11 314 z m 199 236 b 247 274 222 243 224 268 b 285 258 260 269 279 274 b 225 174 268 226 257 193 b 199 236 201 185 201 215 z "},"7":{"ha":679,"x_min":0,"x_max":0,"o":"m 51 -107 b 167 -150 74 -146 119 -158 b 201 -74 190 -149 194 -118 b 243 63 207 -35 215 14 b 300 182 263 104 264 150 b 407 247 288 263 376 213 b 579 233 461 231 525 250 b 600 351 649 247 594 311 b 485 396 583 406 528 394 b 414 403 463 353 443 411 l 485 514 b 578 618 504 561 526 604 b 550 765 601 661 569 721 l 485 767 b 386 743 457 726 413 800 b 158 706 310 753 229 729 b 51 686 122 722 90 682 b 31 582 18 653 19 624 b 94 544 42 557 69 525 b 181 567 115 521 158 544 b 286 588 215 550 244 594 b 365 604 311 596 346 604 b 315 508 369 563 331 533 b 236 374 311 453 272 407 b 153 381 208 397 181 357 b 39 294 100 357 31 351 b 56 247 51 278 46 261 b 164 217 67 229 111 208 b 138 136 164 189 133 165 b 56 -28 126 76 76 28 b 51 -107 46 -51 43 -78 z "},"8":{"ha":639,"x_min":0,"x_max":0,"o":"m 551 254 b 486 390 556 310 525 357 b 508 456 479 408 486 429 b 458 590 492 500 528 574 b 390 633 444 615 419 642 b 313 646 374 658 339 617 b 114 476 231 621 129 579 b 74 390 132 431 100 418 b 29 229 49 344 6 282 b 92 57 1 167 67 110 b 140 11 119 53 106 6 b 239 -43 158 -42 210 -15 b 407 -1 297 -46 350 -6 b 553 254 493 57 546 143 z m 364 492 b 331 446 375 469 343 461 b 269 461 311 446 281 446 b 364 492 285 489 325 528 z m 399 176 b 256 86 378 122 297 113 b 160 192 197 94 168 142 b 183 297 167 225 147 269 b 236 306 201 306 218 319 b 393 281 272 243 340 322 b 399 175 425 254 396 210 z "},"9":{"ha":506,"x_min":0,"x_max":0,"o":"m 435 461 b 335 668 425 538 374 607 b 196 678 288 688 240 707 b 43 449 144 601 54 550 b 99 368 61 421 64 376 b 243 307 111 299 194 314 b 296 313 260 313 278 328 b 194 157 299 238 229 207 l 188 158 l 174 122 b 42 -4 122 88 58 53 b 92 -74 44 -35 68 -60 b 278 42 192 -104 201 18 b 396 217 315 97 361 156 b 436 463 439 292 464 372 z m 289 476 b 238 447 265 474 261 450 b 201 467 224 453 204 451 b 272 543 221 496 238 528 b 288 476 293 528 289 497 z "},"!":{"ha":331,"x_min":0,"x_max":0,"o":"m 258 410 b 258 429 258 415 258 422 b 210 667 226 503 222 586 b 211 706 211 678 211 692 b 211 796 211 735 211 765 b 218 933 210 843 211 890 b 124 1013 214 982 168 1013 b 46 964 92 1013 61 997 b 76 626 69 847 47 743 b 68 608 71 619 68 614 b 76 571 68 596 76 583 b 68 556 78 567 75 561 b 86 514 82 542 86 528 b 69 431 86 485 69 457 b 100 381 69 413 76 396 b 203 356 138 381 164 356 b 226 358 211 356 218 357 b 258 410 253 365 258 386 z m 267 89 b 257 124 267 100 264 111 b 167 188 243 168 206 188 b 53 122 121 186 72 161 b 43 101 46 115 43 108 b 86 44 44 78 69 60 b 210 -4 125 22 161 -4 b 226 -4 215 -4 221 -4 b 267 88 243 24 267 54 z "},"\"":{"ha":600,"x_min":0,"x_max":0,"o":"m 285 839 b 244 1004 319 904 240 940 b 113 1058 207 1033 172 1076 b 42 989 85 1032 50 1032 b 135 807 -19 886 107 882 b 81 736 100 792 115 753 b 104 657 63 708 75 674 b 244 713 161 625 214 675 b 285 838 264 750 299 793 z m 561 885 b 521 1050 596 950 517 986 b 388 1106 482 1081 447 1124 b 317 1035 360 1078 325 1078 b 411 853 257 932 383 928 b 357 782 376 838 392 799 b 381 703 339 754 351 719 b 521 758 438 671 490 721 b 560 885 539 797 574 840 z "},"#":{"ha":506,"x_min":0,"x_max":0,"o":"m 450 418 b 379 489 439 453 414 478 b 435 544 379 518 414 528 b 418 692 482 604 378 633 b 332 749 389 711 379 758 b 254 639 278 731 289 671 b 119 685 224 692 171 685 b 56 560 53 653 140 578 b 96 481 71 535 56 489 b 64 379 94 443 69 414 b 81 292 71 349 88 317 b 89 213 101 268 65 239 b 174 157 104 178 139 161 b 232 307 242 168 211 257 l 239 308 b 244 283 247 304 244 292 b 307 229 247 256 278 229 b 396 243 332 222 382 204 b 450 418 344 329 453 351 z "},"$":{"ha":592,"x_min":0,"x_max":0,"o":"m 356 -57 l 356 -37 b 344 25 351 -25 349 -4 b 492 171 417 40 428 125 l 549 367 b 474 525 521 418 554 514 b 349 575 436 553 394 569 b 325 568 340 569 332 568 l 318 568 l 314 621 b 315 660 315 632 315 646 l 315 683 l 322 683 b 365 700 340 683 356 694 b 383 742 381 710 383 725 b 382 775 383 753 382 764 b 383 793 382 782 382 788 b 315 839 365 817 342 831 b 321 892 317 857 318 875 b 244 974 318 942 281 974 b 182 924 218 974 194 957 b 189 842 186 896 188 868 b 65 681 121 815 79 747 b 63 660 64 674 63 667 b 174 482 64 586 151 540 b 203 461 182 475 192 467 b 214 210 206 381 211 274 b 178 246 203 224 192 238 l 161 246 b 97 250 140 244 118 250 b 43 218 75 250 56 244 b 39 189 40 207 39 197 b 181 33 39 115 133 85 b 211 29 190 31 200 29 b 210 14 210 24 210 18 b 249 -93 210 -4 231 -78 b 310 -112 279 -93 278 -112 b 329 -110 317 -112 322 -111 b 356 -57 350 -103 356 -81 z m 392 400 l 392 392 b 331 226 392 328 371 274 b 324 436 328 296 325 371 b 392 400 350 425 383 431 z "},"%":{"ha":756,"x_min":0,"x_max":0,"o":"m 625 67 l 715 156 b 685 379 713 225 758 331 b 514 436 636 413 578 451 b 325 294 433 418 369 364 b 346 124 288 236 308 168 b 464 74 374 90 424 88 b 625 67 519 54 571 49 z m 238 385 b 433 543 328 392 406 467 b 396 724 453 599 451 681 b 154 796 332 772 247 796 b 97 782 131 796 125 793 b 38 640 50 763 46 693 b 53 513 28 579 40 560 b 236 385 71 442 146 378 z m 582 214 b 475 200 553 194 511 186 b 457 247 456 207 438 238 b 560 283 490 263 524 310 b 582 214 581 269 610 232 z m 285 569 b 200 538 257 550 225 519 b 165 638 165 564 131 594 b 276 632 192 671 242 651 b 285 569 299 621 310 589 z "},"&":{"ha":556,"x_min":0,"x_max":0,"o":"m 319 1299 b 250 1232 286 1293 231 1286 b 238 1139 228 1204 251 1167 b 240 997 246 1092 240 1043 b 243 900 189 963 246 938 b 344 911 279 894 308 899 b 361 1143 410 976 350 1071 b 371 1193 369 1158 383 1174 b 321 1299 426 1239 358 1278 z m 225 -185 b 296 -119 258 -179 314 -174 b 313 -25 319 -90 297 -53 b 310 117 303 22 308 71 b 329 138 321 124 326 131 b 403 174 353 153 376 171 b 433 285 432 211 456 239 b 293 239 379 310 336 263 b 253 244 276 236 267 269 b 174 396 211 282 167 332 b 236 483 179 436 192 479 b 347 467 275 476 306 461 b 401 568 351 522 424 504 b 315 663 376 615 328 610 b 269 726 297 690 269 690 b 481 719 340 751 415 642 b 513 789 485 738 538 760 b 332 846 479 858 392 825 b 71 875 243 850 168 892 l 40 829 b 182 601 -1 713 174 707 b 65 482 143 558 53 561 b 104 206 31 389 54 283 b 176 142 132 194 151 161 b 188 -28 168 88 196 24 b 172 -78 176 -43 161 -58 b 225 -185 119 -122 188 -162 z "},"'":{"ha":335,"x_min":0,"x_max":0,"o":"m 285 839 b 244 1004 319 904 240 940 b 113 1058 207 1033 172 1076 b 42 989 85 1032 50 1032 b 135 807 -19 886 107 882 b 81 736 100 792 115 753 b 104 657 63 708 75 674 b 244 713 161 625 214 675 b 285 838 264 750 299 793 z "},"(":{"ha":335,"x_min":0,"x_max":0,"o":"m 38 329 b 46 274 64 319 56 289 b 188 -32 51 154 154 68 b 338 14 242 -28 314 -49 b 289 93 324 42 338 93 b 188 306 236 156 203 228 b 189 401 199 333 164 368 b 260 842 172 556 219 701 b 338 975 290 882 385 901 b 188 999 293 1017 243 1026 b 86 754 150 925 111 839 b 36 471 71 660 54 565 b 38 329 58 424 29 372 z "},")":{"ha":335,"x_min":0,"x_max":0,"o":"m 349 329 b 350 471 357 372 328 424 b 301 754 333 565 317 660 b 200 999 276 839 238 925 b 50 975 144 1026 94 1017 b 128 842 3 901 97 882 b 199 401 168 701 215 556 b 200 306 224 368 189 333 b 97 93 183 228 150 156 b 50 14 50 93 64 42 b 199 -32 72 -49 144 -28 b 340 274 232 68 335 154 b 350 329 332 289 324 319 z "},"*":{"ha":940,"x_min":0,"x_max":0,"o":"m 919 761 b 915 774 919 765 918 769 b 919 789 918 779 919 785 b 881 849 918 815 908 835 b 819 842 865 857 835 842 b 671 885 768 842 725 885 b 651 882 665 883 658 883 b 574 1136 603 957 601 1051 b 472 1192 558 1181 508 1181 b 317 967 388 1138 408 1019 b 294 958 308 960 301 958 b 249 967 279 958 264 967 b 229 960 243 967 236 965 b 147 944 206 946 176 944 b 132 944 143 944 138 944 b 22 901 88 944 47 942 b 21 893 21 899 21 896 b 51 846 19 872 42 861 b 208 681 94 799 208 758 b 201 650 207 671 206 661 b 204 632 203 643 204 638 b 179 549 204 606 179 579 b 179 544 179 547 179 546 b 114 382 156 490 139 428 b 196 324 143 339 169 324 b 422 451 269 324 339 450 b 538 332 475 414 488 360 b 536 318 536 326 536 322 b 601 247 536 276 578 286 b 610 247 604 247 607 247 b 639 247 619 247 629 247 b 676 263 654 246 675 250 b 711 518 689 338 696 446 b 851 676 763 586 808 606 b 918 760 864 706 918 731 z m 728 740 b 572 608 708 668 638 650 b 569 592 571 603 569 597 b 579 528 569 568 579 547 b 572 449 579 517 582 460 b 506 542 564 488 517 501 b 464 597 469 550 503 596 b 432 603 451 601 442 603 b 306 515 382 604 346 540 b 313 550 311 525 313 538 b 321 589 313 560 321 581 b 336 632 321 606 324 621 l 335 654 l 343 654 b 350 701 347 668 350 685 b 342 746 350 717 347 733 b 249 832 319 781 264 793 b 257 832 251 832 254 832 b 283 831 267 832 275 831 b 307 846 293 831 301 833 b 333 840 317 842 325 840 b 435 875 371 840 407 828 b 457 910 438 879 451 911 b 486 958 465 944 474 929 b 507 836 500 919 507 879 b 517 776 507 828 517 785 b 624 736 557 761 579 736 b 665 754 636 736 650 742 b 707 739 675 742 690 739 b 728 739 714 739 721 739 z "},"+":{"ha":729,"x_min":0,"x_max":0,"o":"m 393 78 b 378 288 374 154 382 207 b 425 294 390 314 404 290 b 536 315 449 333 500 308 b 643 368 563 357 625 311 b 576 471 639 415 606 442 b 456 440 526 501 500 444 b 386 428 432 418 404 460 b 415 675 383 504 383 601 b 365 728 401 694 392 728 b 267 750 344 768 299 742 b 219 663 239 724 224 694 b 233 454 260 597 206 522 b 172 389 238 403 210 390 b 67 383 139 388 100 392 b 17 332 43 376 25 363 b 54 250 22 301 33 275 b 233 272 106 250 185 239 b 228 182 253 256 228 207 b 226 101 249 161 214 131 b 251 42 229 65 233 71 b 325 3 268 8 290 -3 b 388 42 367 13 385 25 z "},",":{"ha":335,"x_min":0,"x_max":0,"o":"m 292 21 b 300 54 297 32 300 43 b 251 186 300 100 251 133 b 146 246 218 211 189 246 b 32 121 92 246 32 171 b 142 -11 32 64 119 50 b 88 -82 107 -26 122 -65 b 79 -108 82 -90 79 -100 b 150 -171 79 -142 114 -171 b 293 0 224 -171 293 -64 b 290 21 293 7 292 14 z "},"-":{"ha":456,"x_min":0,"x_max":0,"o":"m 429 550 b 350 606 417 582 399 635 b 254 599 317 621 285 590 b 115 564 210 579 161 574 b 24 542 72 608 60 547 b 54 447 25 506 35 479 b 285 478 132 394 213 474 b 336 476 301 472 319 461 b 429 550 393 433 417 508 z "},".":{"ha":331,"x_min":0,"x_max":0,"o":"m 267 89 b 257 124 267 100 264 111 b 167 188 243 168 206 188 b 53 122 121 186 72 161 b 43 101 46 115 43 108 b 86 44 44 78 69 60 b 210 -4 125 22 161 -4 b 226 -4 215 -4 221 -4 b 267 88 243 24 267 54 z "},"/":{"ha":483,"x_min":0,"x_max":0,"o":"m 346 346 b 350 365 347 351 349 358 b 374 606 342 444 363 525 b 386 643 378 617 382 629 b 413 729 394 671 403 700 b 461 858 426 775 442 819 b 390 963 469 907 433 950 b 306 939 363 972 329 967 b 235 606 292 819 240 726 b 222 590 228 601 224 596 b 219 556 218 581 224 567 b 206 539 218 549 214 543 b 211 494 215 524 215 508 b 171 419 203 467 179 444 b 186 365 167 404 168 386 b 276 310 222 353 240 321 b 299 307 283 308 290 307 b 346 346 328 306 339 324 z m 260 36 b 261 71 263 47 264 58 b 192 160 260 119 229 149 b 65 132 149 174 94 164 b 50 113 57 126 53 119 b 72 47 43 92 61 67 b 178 -36 106 14 132 -22 b 194 -40 183 -37 189 -39 b 260 36 218 -18 250 4 z "},":":{"ha":561,"x_min":0,"x_max":0,"o":"m 228 -14 l 354 -4 b 476 188 397 51 501 103 b 382 342 460 244 440 313 b 144 353 307 378 224 376 b 51 210 79 333 51 268 b 108 97 50 167 86 133 b 226 -14 139 44 174 7 z m 135 481 b 386 474 208 426 315 433 b 474 636 438 504 489 568 b 336 849 457 715 407 789 b 281 874 317 864 310 865 b 146 801 233 889 186 838 b 75 697 99 764 96 740 b 135 481 44 631 61 533 z m 289 126 b 197 186 254 131 217 151 b 217 231 189 201 194 236 b 317 196 250 224 306 239 b 290 125 324 169 322 121 z m 292 589 b 207 618 258 590 214 588 b 243 718 196 661 189 707 b 326 642 286 726 313 679 b 293 588 336 618 324 586 z "},";":{"ha":561,"x_min":0,"x_max":0,"o":"m 135 478 b 386 471 208 424 315 431 b 474 633 438 501 489 565 b 336 846 457 713 407 786 b 281 871 317 861 310 863 b 146 799 233 886 186 835 b 75 694 99 761 96 738 b 135 478 44 628 61 531 z m 292 586 b 207 615 258 588 214 585 b 243 715 196 658 189 704 b 326 639 286 724 313 676 b 293 585 336 615 324 583 z m 403 -10 b 363 156 438 56 358 92 b 229 211 324 186 289 229 b 160 140 203 183 168 183 b 253 -42 99 38 225 33 b 199 -112 218 -57 233 -96 b 222 -190 181 -139 193 -174 b 363 -136 279 -224 332 -174 b 401 -10 381 -97 415 -54 z "},"<":{"ha":685,"x_min":0,"x_max":0,"o":"m 50 408 b 65 290 44 374 25 317 b 215 236 129 307 157 238 b 514 0 328 172 413 71 b 639 39 565 -11 610 14 b 656 86 644 54 658 67 l 624 119 b 538 160 592 94 574 160 b 365 285 476 192 429 257 b 253 378 329 300 290 360 b 608 669 351 490 488 594 l 632 671 b 640 756 642 700 671 728 b 546 779 615 778 579 799 b 443 717 506 800 481 729 b 111 449 333 643 232 515 b 49 408 63 472 89 408 z "},"=":{"ha":643,"x_min":0,"x_max":0,"o":"m 510 572 b 431 628 497 604 479 657 b 335 621 397 643 365 613 b 115 564 290 601 161 574 b 24 542 72 608 60 547 b 54 447 25 506 35 479 b 365 500 132 394 293 496 b 417 499 382 494 400 483 b 510 572 474 456 497 531 z m 43 228 b 122 172 56 196 74 143 b 218 179 156 157 188 188 b 438 236 263 199 392 226 b 529 258 461 232 529 258 b 499 353 528 294 518 321 b 188 300 421 406 260 304 b 136 301 171 306 156 296 b 43 228 79 344 56 269 z "},">":{"ha":685,"x_min":0,"x_max":0,"o":"m 647 408 b 585 449 607 408 633 472 b 253 717 464 515 363 643 b 151 779 217 729 192 800 b 56 756 117 799 81 778 b 64 671 25 728 54 700 l 88 669 b 443 378 208 594 344 490 b 331 285 406 360 367 300 b 158 160 267 257 219 192 b 72 119 122 160 104 94 l 40 86 b 57 39 38 67 51 54 b 182 0 86 14 131 -11 b 481 236 283 71 368 172 b 631 290 539 238 567 307 b 646 408 671 317 651 374 z "},"?":{"ha":601,"x_min":0,"x_max":0,"o":"m 267 89 b 257 124 267 100 264 111 b 167 188 243 168 206 188 b 53 122 121 186 72 161 b 43 101 46 115 43 108 b 86 44 44 78 69 60 b 210 -4 125 22 161 -4 b 226 -4 215 -4 221 -4 b 267 88 243 24 267 54 z m 53 882 b 107 849 65 856 85 850 b 171 854 128 849 150 854 b 188 854 176 854 182 854 b 271 926 221 872 238 928 b 304 911 281 926 292 922 b 401 708 368 856 401 789 b 401 699 401 706 401 703 b 315 651 392 660 340 678 b 282 660 304 658 293 661 b 183 617 247 660 210 638 b 72 440 161 558 74 513 b 75 419 72 433 74 426 b 206 256 90 350 133 281 b 260 251 222 254 240 253 b 393 307 310 251 361 263 b 392 325 392 313 392 318 b 393 357 392 336 393 347 b 375 400 393 374 390 389 b 332 415 365 406 350 417 b 319 415 328 415 324 415 b 282 390 311 399 296 390 b 258 397 274 390 265 393 b 240 444 253 413 240 425 b 240 451 240 447 240 450 b 335 531 264 482 296 531 b 358 525 342 531 350 529 b 483 575 404 531 446 547 b 558 732 564 586 531 682 b 501 928 539 797 519 864 b 329 1076 431 978 425 1076 b 325 1076 328 1076 326 1076 b 300 1092 319 1089 311 1092 b 276 1090 293 1092 285 1090 b 269 1092 274 1090 271 1090 b 190 1065 251 1065 217 1075 b 49 910 143 1014 49 983 b 53 882 49 901 50 892 z "},"@":{"ha":1407,"x_min":0,"x_max":0,"o":"m 1364 100 b 1268 186 1324 125 1331 199 b 1190 107 1217 169 1242 122 b 1086 131 1156 115 1107 88 b 1056 368 1068 214 1060 282 b 1104 375 1068 396 1083 371 b 1221 399 1129 418 1182 390 b 1332 454 1247 443 1313 393 b 1261 565 1326 506 1292 533 b 1135 532 1208 597 1181 536 b 1064 518 1111 508 1083 553 b 1094 785 1061 601 1061 706 b 1042 839 1081 804 1069 839 b 939 864 1021 883 972 856 b 890 771 911 836 894 806 b 906 547 932 700 876 621 b 842 476 910 492 881 479 b 732 471 807 474 765 481 l 729 469 b 722 654 726 533 711 596 b 719 956 708 751 708 861 b 646 1032 708 992 675 1003 b 546 976 599 1057 572 997 b 482 838 528 926 532 869 b 424 685 465 786 438 739 b 324 494 376 628 369 553 b 204 385 329 407 242 443 b 222 296 188 356 193 317 b 157 143 225 243 210 179 b 47 -46 144 67 19 38 b 154 -108 67 -87 104 -117 b 207 -10 207 -100 189 -42 b 388 308 292 78 293 218 b 617 299 476 267 540 361 b 622 172 619 257 631 210 b 658 13 649 114 579 47 b 772 51 710 -10 736 33 b 744 314 746 132 749 226 b 882 326 790 314 843 317 b 899 256 903 310 899 282 b 914 157 947 224 867 188 b 946 49 917 118 928 81 b 1025 -35 964 14 992 -15 b 1135 -49 1068 -24 1096 -51 b 1317 4 1190 -21 1271 -49 b 1363 100 1356 21 1335 72 z m 594 450 b 522 433 575 438 540 456 b 436 431 494 457 467 426 b 575 729 474 533 521 633 b 594 450 607 650 586 542 z "},"A":{"ha":657,"x_min":0,"x_max":0,"o":"m 664 -56 b 593 169 601 38 636 74 b 557 299 601 215 589 258 b 479 579 529 392 494 483 b 457 664 471 607 446 633 b 422 842 433 722 421 782 b 354 1050 354 903 426 996 b 268 1068 335 1053 297 1061 b 204 986 231 1060 201 1028 b 203 864 214 946 211 899 b 161 753 178 833 186 783 b 132 542 172 689 124 601 l 83 390 b 64 289 97 365 78 317 b 35 119 -25 254 54 179 b -15 -112 11 46 -24 -40 b 104 -121 25 -114 75 -146 b 158 133 125 -39 154 39 b 269 165 193 158 232 154 b 417 175 324 139 369 169 b 476 153 438 168 464 171 b 508 -69 483 53 513 32 b 590 -137 515 -108 547 -137 b 663 -56 614 -108 683 -101 z m 419 310 b 318 285 399 272 350 310 b 203 276 275 303 240 281 b 229 479 186 339 224 419 b 249 565 247 500 256 539 l 303 738 b 419 310 324 586 386 460 z "},"B":{"ha":926,"x_min":0,"x_max":0,"o":"m 836 493 b 804 571 813 514 817 544 b 671 658 771 614 732 672 b 592 689 656 692 608 657 b 710 981 656 776 694 875 b 460 1131 656 1085 549 1097 b 278 1067 413 1072 313 1149 b -140 699 108 999 -24 846 b -76 611 -132 671 -101 632 b 3 618 -54 624 -24 617 b 357 997 60 779 201 928 b 443 1029 386 1007 418 1007 b 529 1011 474 1029 503 1026 b 578 933 556 990 574 965 b 379 667 544 832 483 711 b 379 854 317 736 443 783 b 301 903 368 890 331 894 b 231 824 272 885 221 871 b 260 288 264 644 228 478 b 261 115 261 231 226 160 b 386 124 300 54 342 131 b 379 240 408 153 400 210 b 372 501 369 324 383 406 b 529 571 425 524 479 540 l 538 563 b 671 556 578 597 632 569 b 710 399 708 513 732 456 b 514 -28 728 231 639 90 b 413 -58 479 -40 443 -67 b 372 -82 399 -65 392 -90 b 263 -65 339 -90 300 -68 b 192 29 229 -44 183 -21 b 65 90 165 72 122 104 b 11 -4 32 68 -6 47 b 260 -168 71 -96 174 -122 b 318 -167 279 -144 304 -179 b 340 -185 329 -165 333 -179 b 765 100 531 -186 671 -47 b 782 147 765 117 761 136 b 821 319 788 208 835 261 b 836 493 850 367 831 436 z "},"C":{"ha":631,"x_min":0,"x_max":0,"o":"m 564 574 b 429 911 494 675 511 821 b 389 904 415 910 397 918 b 193 864 329 949 225 925 b 107 692 164 808 119 757 b 49 529 69 646 56 589 b 28 314 40 458 46 372 b 46 260 36 296 42 278 b 114 64 61 192 60 117 b 358 -32 176 1 263 -39 b 532 93 415 -3 476 42 b 557 281 529 154 578 225 b 507 329 550 299 535 315 b 438 339 474 343 451 344 b 351 117 375 314 454 149 b 264 94 325 103 285 122 l 225 125 b 169 307 190 181 122 239 b 208 603 164 403 174 507 b 333 794 235 672 275 739 b 407 581 374 729 386 653 b 464 525 425 563 443 540 b 525 510 482 514 501 507 b 563 574 542 536 571 539 z "},"D":{"ha":685,"x_min":0,"x_max":0,"o":"m 594 549 b 531 769 597 624 574 703 b 374 910 493 832 439 882 b 239 925 332 897 293 940 b 183 942 221 932 201 960 b 168 950 181 946 176 951 b -37 926 115 906 32 933 b -83 839 -50 901 -106 882 b 75 776 -36 804 14 775 b 114 579 124 725 76 635 b 138 169 133 447 142 311 b 144 76 150 135 142 107 b 154 -19 182 47 139 8 b 144 -75 150 -36 158 -61 b 215 -128 160 -96 182 -135 b 301 -131 256 -149 282 -146 b 372 -8 332 -104 346 -49 b 428 38 386 14 403 31 b 551 275 475 113 519 192 b 593 549 582 363 600 453 z m 458 610 b 428 335 442 513 458 428 b 349 169 408 278 367 229 b 285 107 310 156 331 104 b 261 360 250 190 288 282 b 231 754 275 492 240 632 b 254 810 226 776 235 803 b 325 800 276 806 301 778 b 458 610 406 772 446 688 z "},"E":{"ha":706,"x_min":0,"x_max":0,"o":"m 615 115 b 544 217 626 163 569 185 b 396 178 483 229 443 200 b 231 138 336 172 286 154 b 254 382 235 219 183 338 b 443 460 317 407 383 425 b 531 483 467 481 510 453 b 490 610 543 536 515 567 b 388 588 454 607 411 622 b 300 554 364 589 326 571 b 207 540 265 560 235 507 l 214 547 b 207 581 213 558 221 574 l 214 586 b 207 635 200 599 208 619 b 231 785 232 678 222 735 b 317 815 249 817 296 782 b 450 838 371 799 400 842 b 560 878 483 860 525 860 b 553 971 582 908 554 940 b 331 957 486 1067 404 964 b 229 917 310 911 256 951 b 57 846 157 929 100 904 b 82 790 53 822 64 804 b 88 492 100 689 74 606 b 43 382 60 468 31 432 b 89 342 57 368 69 346 l 81 19 l 128 -43 b 276 11 190 -54 233 -21 b 483 68 353 38 404 50 b 569 75 504 101 535 64 b 615 115 588 82 610 93 z "},"F":{"ha":693,"x_min":0,"x_max":0,"o":"m 647 913 l 631 953 b 563 1024 611 1001 588 1021 b 339 929 497 1032 418 926 b 231 882 321 889 261 910 b 165 922 204 886 179 908 l 96 921 b 25 764 15 913 54 813 b 94 511 107 704 60 590 l 47 464 b 72 354 33 426 40 382 b 142 126 172 331 101 194 b 135 0 169 81 138 39 b 160 -56 133 -19 139 -37 b 283 -85 199 -79 235 -107 b 315 -8 296 -62 326 -44 b 246 369 253 103 278 246 b 354 418 283 381 317 404 b 457 456 396 411 418 456 b 576 503 483 503 549 460 b 574 613 613 538 586 576 b 457 638 532 610 506 653 b 238 526 399 564 308 569 l 206 717 l 229 747 b 317 764 261 746 281 774 b 433 803 344 803 396 785 b 583 865 482 826 532 846 b 647 914 597 897 653 867 z "},"G":{"ha":876,"x_min":0,"x_max":0,"o":"m 861 513 b 775 582 825 535 829 589 b 585 543 707 574 649 558 b 578 558 581 547 575 551 b 492 526 546 557 519 536 b 247 479 424 478 314 531 b 254 371 231 447 240 401 b 310 339 285 371 281 336 b 483 378 369 350 435 344 b 499 196 517 325 483 251 b 444 110 496 161 481 125 b 263 94 383 83 326 94 b 168 235 231 142 157 163 b 228 547 185 342 199 447 b 333 796 254 633 288 717 b 426 801 365 819 396 847 b 492 669 442 754 485 719 b 624 631 519 619 575 632 b 671 693 640 651 671 665 b 549 869 631 751 593 815 b 417 976 513 914 471 951 b 315 967 364 1000 368 988 b 215 897 276 951 239 935 b 169 810 201 867 181 840 b 78 564 128 733 99 650 b 26 235 50 458 36 347 b 193 0 18 135 114 56 b 326 -56 219 -42 292 -14 b 419 -33 353 -36 404 -64 b 485 -49 442 -14 468 -31 b 460 -119 492 -79 460 -92 b 553 -204 474 -167 522 -169 b 640 -158 585 -197 618 -189 b 617 -40 607 -118 640 -83 b 625 229 667 39 624 149 b 649 386 644 275 650 328 b 681 401 658 393 667 408 b 806 425 707 444 764 417 b 863 511 842 440 858 475 z "},"H":{"ha":688,"x_min":0,"x_max":0,"o":"m 589 858 b 469 936 554 894 517 928 b 399 868 438 928 408 899 b 399 614 404 789 379 697 b 407 361 389 525 381 446 b 218 292 356 314 290 293 b 218 694 206 429 206 556 b 258 842 236 744 236 789 b 163 919 251 894 190 886 b 92 882 128 938 114 899 b 58 165 46 647 81 399 b 76 -62 114 99 58 10 b 185 -135 96 -112 146 -114 b 211 110 308 -85 199 19 b 344 165 242 158 311 119 b 415 126 364 142 431 183 b 383 -47 428 69 393 10 l 438 -110 b 532 -118 469 -135 501 -92 b 564 -54 554 -100 556 -76 b 556 126 554 13 550 63 b 540 206 550 153 533 183 l 547 213 b 532 307 567 244 550 279 l 533 663 b 549 708 568 672 525 693 b 589 858 526 764 586 803 z "},"I":{"ha":715,"x_min":0,"x_max":0,"o":"m 639 119 b 551 206 611 149 603 207 b 451 182 522 233 483 190 b 393 199 429 186 403 172 b 394 450 394 282 394 375 b 394 772 394 547 394 664 b 536 850 428 815 490 821 b 583 913 551 872 611 878 b 433 946 560 971 479 971 b 371 946 418 933 386 933 b 103 828 281 910 178 900 b 142 725 85 785 131 765 b 253 725 181 725 225 725 b 244 685 250 711 258 693 b 254 614 271 663 228 638 b 246 342 239 519 250 433 b 238 158 243 281 271 215 b 197 167 224 160 206 153 b 40 118 140 136 69 199 b 101 1 36 71 69 29 b 182 1 125 13 160 13 b 411 40 238 50 343 3 b 615 63 489 22 540 72 b 639 119 639 75 631 101 z "},"J":{"ha":682,"x_min":0,"x_max":0,"o":"m 656 928 b 607 968 643 950 635 967 b 492 990 578 1029 535 963 b 381 967 468 947 417 975 b 332 960 364 965 347 938 b 208 951 296 946 239 954 b 50 889 169 894 72 969 b 111 793 47 846 79 814 b 207 817 143 801 189 774 b 286 794 238 818 276 822 b 332 424 301 671 340 549 b 357 172 353 344 361 260 b 256 -24 335 101 347 4 b 121 31 199 -54 161 3 b 18 -8 81 29 32 39 b 65 -119 32 -47 17 -96 b 381 -119 160 -165 286 -167 b 474 361 539 -12 485 204 b 450 692 493 461 446 578 b 426 801 431 724 424 761 b 617 858 460 879 549 851 b 656 928 642 868 665 894 z "},"K":{"ha":661,"x_min":0,"x_max":0,"o":"m 610 94 b 506 307 628 194 513 217 b 388 529 454 376 415 449 b 467 700 379 608 432 639 b 554 843 485 760 593 769 b 451 899 513 844 497 914 b 374 813 413 883 383 854 b 239 653 315 769 292 703 b 239 843 226 713 226 783 b 224 889 232 857 253 889 b 93 904 138 960 104 949 b 82 651 76 840 106 706 b 81 464 71 585 103 528 b 74 339 89 419 32 381 b 58 0 79 229 100 97 b 136 -62 93 -18 75 -90 b 214 -64 160 -103 186 -56 b 207 47 225 -32 232 19 b 214 189 236 94 214 138 b 214 268 215 215 208 244 b 278 425 229 324 249 376 b 381 260 313 378 338 313 b 474 79 424 204 421 121 b 538 81 500 90 515 56 l 546 71 b 610 94 574 63 588 86 z "},"L":{"ha":994,"x_min":0,"x_max":0,"o":"m 1056 -35 b 1025 75 1035 -4 1069 53 b 946 21 999 50 965 49 b 828 53 900 -7 865 36 b 504 250 713 101 603 181 l 504 485 b 726 618 586 511 653 572 b 796 893 760 704 857 788 b 694 981 776 928 753 996 b 521 949 631 1007 574 971 b 371 760 425 925 419 824 b 349 635 354 715 376 676 b 299 643 332 660 315 617 l 293 633 b 136 713 246 672 172 651 b 40 672 97 711 64 703 b 32 578 21 649 19 606 b 199 500 81 533 136 507 b 339 478 229 446 293 508 b 381 335 415 458 360 389 b 294 328 361 275 322 354 l 285 335 b 260 326 276 335 264 336 b 81 264 193 350 138 292 b 24 99 11 221 44 164 b 182 -67 40 22 111 -39 b 292 -82 215 -76 260 -112 b 442 -4 378 -111 389 -42 b 489 75 456 24 442 75 b 708 -67 547 -6 650 15 b 828 -107 757 -60 782 -112 b 978 -121 867 -135 928 -115 b 1056 -36 1017 -107 1046 -79 z m 654 814 b 538 679 643 742 590 718 b 511 688 532 689 519 688 b 656 814 521 761 586 807 z m 325 129 b 293 64 317 107 315 82 b 192 111 249 53 219 81 b 231 161 186 144 221 136 b 325 129 269 157 290 149 z "},"M":{"ha":874,"x_min":0,"x_max":0,"o":"m 776 7 b 722 417 724 129 715 271 b 699 582 699 475 732 526 b 722 692 715 624 700 651 b 675 825 753 744 719 788 b 567 800 633 826 594 825 b 361 496 542 688 433 589 b 313 604 332 526 335 571 b 179 919 263 707 261 829 b 78 897 135 914 108 936 b 92 604 67 804 57 689 b 93 526 93 589 92 542 b 132 86 100 376 142 231 b 179 -10 122 43 143 6 b 281 -8 208 -22 251 -21 b 274 172 315 46 288 117 b 275 304 285 211 250 260 b 329 258 289 283 311 276 b 446 282 376 294 418 207 b 572 478 474 354 519 425 b 589 369 576 443 579 408 b 613 101 589 276 585 192 b 613 38 624 75 589 60 b 651 -32 576 -4 640 -1 b 778 7 694 -24 764 -58 z "},"N":{"ha":639,"x_min":0,"x_max":0,"o":"m 560 893 b 513 950 544 911 521 928 b 394 901 467 972 414 946 b 386 492 392 765 400 633 b 269 664 343 540 314 607 b 175 893 217 732 253 838 b 72 886 142 917 94 924 b 79 776 39 849 40 810 b 64 -18 61 506 117 247 b 165 -75 68 -79 133 -57 b 222 -43 192 -83 217 -65 l 206 169 b 204 232 194 194 229 210 b 221 326 221 260 207 299 b 213 397 182 347 231 378 b 222 483 204 421 196 464 b 317 343 256 444 281 388 b 378 224 340 304 326 249 b 378 168 390 210 390 182 b 410 -43 413 99 340 14 b 443 -36 421 -42 436 -50 l 449 -44 b 528 -28 475 -14 506 -69 b 528 67 553 4 513 39 b 511 131 499 86 535 107 b 514 231 536 164 501 192 b 521 264 518 242 536 256 b 519 357 499 294 526 329 b 560 893 535 536 522 714 z "},"O":{"ha":733,"x_min":0,"x_max":0,"o":"m 651 182 b 654 400 675 253 674 329 b 596 529 643 446 622 490 b 399 694 544 603 483 667 b 242 671 349 693 292 689 b 125 575 194 653 153 624 b 61 489 85 563 107 510 b 39 371 51 451 43 411 b 44 238 36 326 36 282 b 151 90 57 176 100 128 b 282 17 193 58 240 35 l 289 24 b 376 24 321 6 349 26 b 424 17 392 0 408 42 b 651 182 504 42 618 82 z m 525 354 b 510 229 519 314 539 271 b 431 149 504 188 457 175 b 261 164 374 151 311 143 b 194 229 235 176 211 196 b 207 418 174 289 181 356 b 311 558 231 471 267 519 b 429 528 350 544 385 524 b 525 354 474 483 519 424 z "},"P":{"ha":664,"x_min":0,"x_max":0,"o":"m 606 483 b 597 601 592 519 600 572 b 339 910 583 740 435 832 b 282 933 314 906 296 915 b 56 919 217 928 122 947 b 15 847 22 910 19 875 b 117 792 38 799 88 819 b 221 799 156 799 183 825 b 140 738 178 799 164 767 b 157 414 147 628 165 515 b 165 296 153 367 167 332 b 164 201 149 267 188 232 l 174 193 b 164 161 178 179 163 174 b 164 21 199 110 131 71 b 229 -19 171 -12 206 -10 b 322 13 260 -10 294 -10 b 299 186 300 56 313 131 b 447 257 343 218 392 244 b 606 483 532 306 596 392 z m 432 444 b 347 367 413 415 378 371 b 307 350 336 353 322 349 b 308 744 322 493 282 604 b 243 799 296 774 265 781 b 378 719 292 783 357 774 b 432 444 474 667 444 529 z "},"Q":{"ha":886,"x_min":0,"x_max":0,"o":"m 774 644 b 696 794 733 689 731 749 b 590 888 668 829 632 863 b 468 929 553 910 511 925 b 326 943 429 957 372 938 b 224 889 288 933 258 903 b 89 715 178 831 124 776 b 74 550 61 668 79 594 b 129 401 96 503 111 451 b 231 228 151 336 179 275 b 340 179 272 221 310 207 b 408 161 378 189 397 179 b 451 6 433 121 421 42 b 585 -87 461 -60 533 -72 b 726 -1 642 -82 690 -43 b 703 101 736 40 746 79 b 610 44 651 139 638 71 b 578 156 585 78 554 114 b 711 290 540 258 688 214 b 786 449 772 332 786 388 b 775 644 786 513 769 582 z m 625 424 l 586 385 b 586 457 576 404 568 431 b 547 581 550 497 596 544 b 382 613 507 628 438 628 b 311 589 363 619 331 607 b 281 494 301 558 265 536 b 421 447 324 468 369 451 b 413 299 411 394 413 358 b 350 299 397 286 367 286 b 247 486 308 353 268 417 b 242 668 229 543 225 604 b 476 817 278 764 372 821 b 578 739 513 800 538 750 b 631 593 594 692 617 643 b 625 425 646 538 650 482 z "},"R":{"ha":678,"x_min":0,"x_max":0,"o":"m 832 -364 b 832 -254 843 -333 843 -286 b 792 -237 815 -256 801 -251 b 707 -293 733 -217 747 -274 b 601 -128 636 -274 613 -192 b 524 367 531 18 597 221 b 476 461 518 403 476 422 b 563 738 542 540 581 625 b 438 872 540 790 492 846 b 314 943 403 894 354 919 b 29 808 204 931 78 913 b 60 728 7 779 49 754 b 92 314 47 581 118 457 b 92 75 115 235 115 154 b 240 38 125 22 188 42 b 279 108 257 58 296 72 b 240 360 219 174 267 281 b 328 376 271 367 294 382 b 422 171 418 338 379 235 b 446 -87 415 89 428 -6 b 461 -168 467 -108 471 -143 b 581 -372 506 -235 497 -329 b 675 -411 621 -361 642 -403 b 832 -365 733 -412 794 -418 z m 399 728 b 375 563 424 679 385 618 b 233 517 340 517 293 513 b 257 792 240 618 178 708 b 399 728 306 778 376 796 z "},"S":{"ha":585,"x_min":0,"x_max":0,"o":"m 532 628 b 392 810 558 724 446 753 b 313 833 365 818 332 807 b 257 818 293 829 267 843 b 83 668 157 819 154 719 b 29 471 67 603 47 536 b 110 314 58 419 28 324 b 232 267 144 288 186 271 b 351 196 283 292 324 231 b 335 140 357 172 340 158 b 274 157 315 125 288 132 b 217 140 249 163 229 147 b 201 47 188 118 208 78 b 392 0 247 -11 328 -8 b 518 164 463 25 504 94 b 406 363 535 251 432 299 b 274 392 369 389 314 419 b 186 439 249 419 197 400 b 279 653 182 524 214 594 b 399 597 339 706 356 621 b 533 629 444 607 507 572 z "},"T":{"ha":864,"x_min":0,"x_max":0,"o":"m 810 749 b 763 875 850 796 788 836 l 669 875 b 597 821 657 847 622 839 b 472 781 554 808 511 799 b 282 743 404 825 347 732 b 101 703 228 717 174 692 b 29 625 69 679 42 661 b 100 544 61 600 56 549 b 346 600 214 435 228 651 b 393 301 385 510 365 396 b 401 35 396 222 388 129 b 543 -22 439 -10 488 -19 b 582 42 574 -15 571 19 b 558 111 582 68 550 81 b 511 568 518 254 539 421 b 510 632 514 588 526 614 b 597 654 543 631 571 663 b 722 696 632 685 683 697 b 810 749 743 736 797 708 z "},"U":{"ha":842,"x_min":0,"x_max":0,"o":"m 742 632 b 660 703 711 647 703 703 b 656 703 658 703 657 703 b 561 592 596 681 567 660 b 597 400 585 533 597 467 b 561 208 597 333 585 267 b 365 135 513 143 422 178 b 239 286 292 151 272 233 b 214 497 221 351 214 428 b 214 531 214 508 214 519 b 213 546 213 535 213 540 b 225 633 213 572 225 601 b 222 657 225 640 224 649 b 111 718 190 694 151 718 b 42 694 89 718 65 711 l 33 583 b 82 340 50 510 69 425 b 81 335 81 338 81 336 b 150 121 81 253 135 194 b 238 42 189 96 194 47 b 342 0 264 7 301 0 b 415 3 365 0 390 3 b 474 -6 436 3 456 1 b 485 -6 478 -6 482 -6 b 624 40 539 -7 574 31 b 743 347 714 111 743 228 b 735 467 743 388 740 428 b 724 504 726 479 724 492 b 746 601 724 536 746 565 b 742 631 746 611 744 621 z "},"V":{"ha":699,"x_min":0,"x_max":0,"o":"m 624 763 b 622 865 639 797 640 833 b 474 919 590 924 532 924 b 418 731 432 867 424 797 b 301 275 340 596 360 418 b 197 746 249 424 249 597 l 206 754 b 190 811 200 772 183 786 b 57 872 165 843 113 875 b 25 772 29 846 21 811 b 135 408 86 660 97 528 b 158 258 126 361 151 308 b 175 203 140 240 157 217 b 206 31 161 136 196 88 b 254 -118 153 -35 235 -64 b 371 -135 296 -133 324 -161 b 411 -40 410 -114 397 -72 b 458 322 392 86 442 201 b 465 354 463 332 481 346 b 624 763 493 501 542 644 z "},"W":{"ha":1176,"x_min":0,"x_max":0,"o":"m 1104 700 b 1064 763 1088 710 1067 738 b 963 771 1040 811 996 768 b 890 619 926 732 901 675 b 758 257 844 500 792 382 b 631 440 700 297 639 365 b 546 540 619 479 589 526 b 451 501 506 547 475 533 b 388 235 436 410 429 315 b 347 283 365 247 369 271 b 214 699 321 435 221 536 b 103 778 181 735 163 788 b 33 676 60 758 33 728 b 168 414 113 601 103 494 b 268 139 181 314 233 229 b 300 -10 269 85 318 43 b 364 -96 318 -39 325 -83 b 474 -89 394 -107 451 -150 b 497 29 506 -58 514 -10 b 576 258 522 107 539 188 l 600 235 b 694 101 617 183 663 147 l 694 85 b 828 21 722 39 778 25 b 868 53 850 17 850 46 b 994 510 901 208 949 360 b 1081 618 1008 560 1053 585 b 1104 700 1100 639 1111 664 z "},"X":{"ha":789,"x_min":0,"x_max":0,"o":"m 693 64 b 653 190 699 106 679 153 b 481 386 574 231 556 326 b 526 543 433 444 525 486 b 678 701 561 597 614 668 b 631 835 697 750 646 789 b 526 804 596 825 526 861 b 356 560 458 726 413 640 b 238 701 321 603 272 653 b 94 826 196 746 186 844 b 33 765 65 810 51 793 b 72 661 0 714 53 700 b 276 440 178 632 207 514 b 260 369 294 418 278 390 b 94 57 215 263 164 143 b 101 -61 85 13 58 -32 b 182 -101 121 -93 168 -74 b 222 -101 194 -106 213 -118 b 268 17 279 -78 213 -14 b 315 118 283 50 282 90 b 401 283 335 178 356 244 b 592 10 457 190 513 94 b 685 8 624 4 660 18 b 693 64 700 26 700 42 z "},"Y":{"ha":671,"x_min":0,"x_max":0,"o":"m 600 868 b 514 931 578 899 550 926 b 436 931 485 974 472 922 l 436 907 b 404 750 403 864 403 807 b 381 693 381 738 389 711 b 199 600 342 628 274 599 b 208 876 119 676 182 793 b 246 954 221 900 210 943 b 247 1056 282 983 247 1022 b 146 1088 229 1090 185 1090 b 43 851 69 1026 92 925 b 14 668 36 793 13 728 b 96 504 15 596 50 554 b 144 489 108 490 124 481 b 286 450 178 419 229 463 b 428 529 342 460 381 503 l 443 514 b 451 263 421 419 482 342 b 379 81 453 201 458 114 b 286 97 347 67 325 108 b 178 201 243 113 213 176 b 106 183 156 217 133 217 b 119 81 74 146 126 119 b 404 -61 207 14 285 -78 b 563 50 463 -51 528 -7 b 593 226 594 101 592 168 b 569 482 596 315 590 403 b 563 639 574 528 543 599 b 568 757 528 682 590 717 b 600 867 590 789 590 829 z "},"Z":{"ha":729,"x_min":0,"x_max":0,"o":"m 658 489 b 532 535 640 546 579 533 b 454 543 508 490 486 553 l 532 661 b 636 772 554 711 579 757 b 604 929 661 818 626 882 l 532 929 b 424 906 501 888 453 967 b 171 864 339 915 250 890 b 53 843 131 882 96 839 b 29 733 15 808 17 778 b 100 694 42 707 72 674 b 196 718 124 669 171 694 b 313 739 235 699 267 746 b 400 756 340 747 378 756 b 344 654 406 713 363 682 b 258 513 340 596 297 547 b 165 521 226 538 196 494 b 83 433 151 474 69 494 b 171 339 113 394 122 356 b 147 260 169 308 143 290 b 51 1 129 168 22 103 b 178 -47 76 -42 126 -56 b 526 56 271 44 404 40 b 596 64 544 46 582 38 b 565 196 622 111 588 157 b 461 197 535 232 489 197 b 313 172 417 176 351 204 b 265 181 297 175 278 167 b 328 306 286 224 288 272 b 446 378 314 394 413 342 b 636 363 506 360 576 381 b 658 489 713 378 653 446 z "},"[":{"ha":335,"x_min":0,"x_max":0,"o":"m 28 881 b 90 274 61 675 57 481 b 83 203 81 257 100 222 b 67 -56 89 113 74 39 b 240 -40 121 -61 197 -82 b 296 -50 258 -57 275 -36 b 374 -25 332 -71 339 -10 b 422 71 401 -4 453 28 b 306 93 396 114 343 86 b 249 78 290 75 267 60 b 232 235 225 122 217 183 b 193 651 206 369 218 518 b 201 707 207 665 200 689 l 193 714 b 201 739 204 718 201 731 l 192 746 b 200 833 206 771 164 810 b 389 896 269 818 343 853 b 335 968 401 940 363 950 b 257 967 304 956 282 990 b 161 967 235 964 183 944 b 28 881 106 949 47 946 z "},"\\":{"ha":693,"x_min":0,"x_max":0,"o":"m 489 25 b 586 -15 500 4 560 -22 b 664 21 629 -7 644 0 b 631 121 678 44 639 107 b 319 540 618 143 333 514 b 315 585 313 553 308 567 b 299 597 307 586 301 592 b 290 632 292 608 294 622 b 274 643 288 636 282 642 b 138 956 243 761 175 842 b 49 963 110 979 75 978 b 1 846 10 940 -18 892 b 74 729 29 811 53 771 b 118 650 90 703 104 675 b 138 615 125 638 131 625 b 479 42 164 539 472 122 b 489 25 482 36 485 29 z "},"]":{"ha":335,"x_min":0,"x_max":0,"o":"m 432 881 b 297 967 411 946 353 949 b 203 967 276 944 225 964 b 124 968 176 990 154 956 b 71 896 97 950 58 940 b 258 833 115 853 189 818 b 267 746 294 810 253 771 l 258 739 b 267 714 258 731 256 718 l 258 707 b 267 651 260 689 253 665 b 226 235 240 518 253 369 b 210 78 242 183 233 122 b 154 93 193 60 169 75 b 36 71 115 86 63 114 b 85 -25 6 28 57 -4 b 163 -50 119 -10 126 -71 b 219 -40 185 -36 201 -57 b 393 -56 263 -82 339 -61 b 376 203 386 39 371 113 b 368 274 358 222 378 257 b 431 881 401 481 397 675 z "},"^":{"ha":522,"x_min":0,"x_max":0,"o":"m 479 568 b 369 797 539 664 414 724 b 338 876 367 826 343 849 b 229 906 311 904 268 914 b 149 836 194 897 163 875 b 117 742 157 797 139 768 b 24 600 90 699 56 647 b 47 553 15 578 35 567 b 149 515 90 546 94 494 b 275 711 200 576 217 651 b 368 568 306 663 338 615 b 425 544 392 572 410 563 b 479 567 439 564 469 538 z "},"_":{"ha":767,"x_min":0,"x_max":0,"o":"m 778 -129 b 743 -79 775 -97 758 -69 b 582 -83 689 -57 633 -87 b 476 -79 543 -92 510 -86 b 168 -79 383 -79 267 -81 b 14 -92 119 -79 63 -65 b -21 -181 -19 -110 -32 -144 b 18 -218 -18 -201 -1 -212 b 226 -211 88 -228 158 -219 b 519 -214 324 -211 419 -208 b 604 -237 549 -221 582 -217 b 771 -211 649 -224 729 -254 b 778 -129 757 -178 783 -175 z "},"`":{"ha":524,"x_min":0,"x_max":0,"o":"m 460 815 b 393 883 460 858 425 868 l 379 886 b 181 1010 303 910 251 978 b 122 1038 168 1031 143 1032 b 44 994 89 1036 63 1018 b 49 921 35 969 36 944 b 176 850 67 889 175 849 b 329 754 231 825 275 776 b 429 746 358 739 392 733 b 460 815 443 769 461 789 z "},"a":{"ha":867,"x_min":0,"x_max":0,"o":"m 772 51 b 728 426 733 169 756 315 b 724 654 735 504 710 582 b 719 956 708 751 708 861 b 646 1032 708 992 675 1003 b 546 976 599 1057 572 997 b 482 838 528 926 532 869 b 424 685 465 786 438 739 b 324 494 376 628 369 553 b 204 385 329 407 242 443 b 222 296 188 356 193 317 b 157 143 225 243 210 179 b 47 -46 144 67 19 38 b 154 -108 67 -87 104 -117 b 207 -10 207 -100 189 -42 b 388 308 292 78 293 218 b 617 299 476 267 540 361 b 622 172 619 257 631 210 b 658 13 649 114 579 47 b 772 51 710 -10 736 33 z m 596 450 b 524 433 576 438 542 456 b 438 431 496 457 468 426 b 576 729 475 533 522 633 b 596 450 608 650 588 542 z "},"b":{"ha":926,"x_min":0,"x_max":0,"o":"m 811 435 b 739 501 782 449 751 469 b 574 622 694 564 625 571 b 707 844 651 676 711 743 b 526 951 658 890 607 964 b 369 976 474 1007 433 943 b 290 950 356 933 308 982 l 275 967 b 69 904 203 954 140 918 b -33 881 39 888 13 861 b -72 815 -69 878 -58 836 b 0 757 -60 788 -32 763 b 196 824 85 704 117 850 b 211 693 201 779 218 729 b 275 149 238 515 290 319 b 385 76 301 101 329 75 b 432 122 399 99 451 72 b 353 529 394 256 379 393 b 432 518 379 546 403 513 b 494 539 444 549 483 507 b 725 378 589 525 661 463 b 646 146 750 281 686 214 b 408 -31 582 65 503 7 b 188 6 338 -26 254 -36 b 85 60 146 7 131 65 b 0 10 57 46 14 46 b 63 -86 -7 -29 35 -62 l 142 -92 b 346 -129 200 -125 283 -131 b 511 -86 408 -117 469 -139 b 747 74 621 -85 671 26 b 811 436 793 181 899 301 z m 567 860 b 456 696 586 776 511 732 b 346 675 424 676 376 696 b 346 753 346 689 346 736 b 363 861 333 792 336 835 b 528 860 408 883 481 881 b 568 858 535 871 553 860 z "},"c":{"ha":728,"x_min":0,"x_max":0,"o":"m 639 488 b 606 561 646 521 628 542 b 481 708 599 622 526 667 b 388 726 442 669 432 754 b 269 747 357 779 308 717 b 113 629 226 703 142 690 b 36 389 93 551 56 471 b 57 165 21 317 18 242 b 300 -1 104 69 201 13 b 497 15 361 -29 442 -14 b 576 54 531 13 553 46 b 631 117 597 74 635 81 b 568 213 610 150 614 196 b 411 135 501 222 458 172 b 197 213 319 113 258 165 b 197 385 185 269 185 329 b 324 592 214 465 257 539 b 381 590 344 592 364 572 b 435 565 401 588 411 561 b 553 447 489 540 506 469 b 638 488 597 440 610 460 z "},"d":{"ha":685,"x_min":0,"x_max":0,"o":"m 600 322 b 575 568 636 413 617 494 b 404 778 531 647 461 717 b 303 818 371 793 335 828 b 254 826 290 832 271 825 l 238 843 b 33 819 169 836 89 861 b 32 749 29 796 4 768 b 46 699 19 722 29 710 b 106 653 65 686 96 676 b 128 63 124 469 132 256 b 282 28 174 36 228 25 b 394 56 321 29 360 39 b 569 244 457 111 535 165 b 600 322 585 268 603 294 z m 451 521 b 468 433 463 494 468 464 b 435 307 469 388 458 340 b 286 181 400 243 335 221 b 254 504 276 290 276 401 b 271 693 272 563 217 640 b 399 597 317 664 363 635 b 450 521 419 575 438 550 z "},"e":{"ha":668,"x_min":0,"x_max":0,"o":"m 610 358 b 557 625 615 447 560 529 b 433 808 504 686 508 767 b 350 857 406 813 388 863 b 150 786 281 864 213 819 b 75 674 125 750 76 721 b 31 413 29 596 18 500 b 68 189 33 343 22 250 b 165 0 89 122 111 54 b 410 -50 226 -62 322 -47 b 485 -36 425 -24 461 -42 b 596 49 519 0 615 -24 b 543 106 593 74 564 94 b 425 90 497 117 469 83 b 285 78 388 65 331 82 b 224 156 236 86 260 136 b 193 263 224 186 181 235 b 290 281 207 294 261 267 b 432 322 336 299 399 276 b 490 315 446 311 479 318 b 521 336 504 315 513 329 b 610 358 551 301 585 340 z m 440 463 b 365 435 415 454 389 422 b 300 419 342 439 315 438 l 179 421 b 296 699 167 542 217 619 b 378 669 328 699 360 699 b 425 547 382 617 433 596 b 440 463 443 525 440 493 z "},"f":{"ha":722,"x_min":0,"x_max":0,"o":"m 697 750 b 651 846 669 778 690 829 b 469 899 606 899 525 871 b 360 885 431 901 403 874 b 281 801 326 865 299 836 b 249 694 263 769 251 732 b 233 594 201 664 282 628 b 217 522 233 568 238 540 b 53 522 167 557 107 522 b 14 436 31 496 19 467 b 67 381 22 403 42 388 b 176 375 100 371 142 376 b 240 303 215 372 244 360 b 225 79 211 229 267 150 b 274 -14 229 44 246 14 b 376 11 307 -6 356 -33 b 429 65 404 11 415 46 b 399 333 396 144 396 249 b 471 318 418 299 446 343 b 597 286 517 314 544 253 b 667 396 628 318 663 346 b 556 451 647 457 582 407 b 439 476 517 460 464 432 b 390 482 418 481 403 456 b 422 719 394 568 403 636 b 525 743 443 763 492 735 b 604 664 576 728 551 681 b 699 750 667 651 660 725 z "},"g":{"ha":719,"x_min":0,"x_max":0,"o":"m 31 460 b 36 254 -12 394 51 325 b 86 196 50 231 68 215 b 53 122 83 181 53 138 b 86 -44 53 74 60 -3 b 290 -118 124 -106 226 -94 l 444 -107 b 592 111 496 -44 621 14 b 476 290 571 178 547 256 b 240 315 403 325 321 331 b 169 458 179 340 153 379 b 176 463 172 460 175 461 l 179 458 b 485 453 268 396 399 406 b 590 638 546 486 608 560 b 558 721 583 667 572 694 b 667 778 600 722 640 753 b 721 901 689 814 731 854 b 699 1072 767 963 688 1008 b 564 1142 661 1106 629 1153 b 479 1078 531 1117 493 1121 b 579 939 406 981 529 958 b 493 818 578 892 532 831 l 492 817 b 422 882 471 839 447 861 b 357 911 400 900 392 901 b 192 829 299 928 242 869 b 108 707 138 783 133 757 b 93 594 92 674 86 633 l 90 592 b 31 460 67 553 26 513 z m 374 18 b 225 81 319 25 254 25 b 261 186 211 107 228 194 b 415 129 314 174 399 199 b 374 18 426 89 424 13 z m 369 585 b 265 619 328 588 274 585 b 310 733 253 668 244 721 b 410 649 361 743 392 690 b 368 585 421 619 406 583 z "},"h":{"ha":688,"x_min":0,"x_max":0,"o":"m 589 957 b 469 1035 554 993 517 1026 b 399 967 438 1026 408 997 b 399 713 404 888 379 796 b 407 460 389 624 381 544 b 218 389 356 411 290 390 b 218 792 206 526 206 653 b 258 940 236 843 236 888 b 163 1018 251 993 190 985 b 92 979 128 1035 114 996 b 58 264 46 746 81 497 b 76 35 114 196 58 107 b 185 -36 96 -14 146 -15 b 211 207 308 13 199 117 b 344 264 242 257 311 218 b 415 224 364 239 431 281 b 383 51 428 168 393 108 l 438 -11 b 532 -21 469 -37 501 6 b 564 44 554 -1 556 22 b 556 225 554 111 550 161 b 540 303 550 250 533 281 l 547 311 b 532 406 567 343 550 378 l 533 760 b 549 807 568 771 525 792 b 589 956 526 861 586 900 z "},"i":{"ha":619,"x_min":0,"x_max":0,"o":"m 446 -58 b 446 -39 446 -53 446 -46 b 397 197 414 33 410 117 b 397 238 397 210 397 224 b 397 328 397 267 397 297 b 406 465 397 375 399 422 b 310 544 400 514 354 544 b 232 496 278 544 247 529 b 263 157 256 378 233 274 b 256 140 258 151 256 146 b 264 103 256 128 264 115 b 254 88 264 99 261 93 b 274 44 269 72 274 58 b 257 -39 274 15 257 -12 b 288 -87 257 -56 264 -72 b 390 -112 325 -87 351 -112 b 413 -110 397 -112 404 -111 b 446 -58 440 -103 446 -82 z m 500 1018 b 297 757 483 906 419 790 b 235 743 279 744 257 743 b 207 742 225 742 215 742 b 106 869 149 769 124 815 b 104 888 104 876 104 882 b 192 1054 104 954 143 1007 b 257 1081 206 1076 231 1081 b 308 1081 275 1082 293 1081 b 363 1124 339 1079 363 1086 b 363 1132 363 1126 363 1129 b 382 1136 368 1135 375 1136 b 471 1075 417 1136 447 1094 b 501 1018 481 1054 500 1039 z m 642 1046 b 503 1194 596 1096 586 1183 b 444 1244 490 1226 468 1225 b 290 1265 396 1257 344 1265 b 261 1265 281 1265 271 1265 b 231 1243 249 1258 243 1243 b 224 1244 229 1243 226 1243 b 39 1096 174 1183 88 1163 b -19 932 -6 1049 -19 992 b -3 792 -19 885 -11 838 b 201 638 35 703 125 671 b 226 638 210 638 218 638 b 290 636 247 639 269 636 b 364 658 318 636 344 640 b 604 876 488 658 565 779 b 649 1000 631 913 649 956 b 642 1046 650 1015 647 1031 z "},"j":{"ha":478,"x_min":0,"x_max":0,"o":"m 364 682 b 339 918 319 753 360 839 b 183 918 300 953 215 1004 b 199 769 176 864 193 818 b 199 563 199 699 201 642 l 182 146 b 158 6 167 92 175 60 b -31 -160 121 -78 49 -128 b -147 -97 -82 -168 -111 -121 b -228 -151 -174 -115 -215 -112 b -93 -278 -215 -221 -151 -256 b 1 -279 -51 -256 -29 -326 b 103 -262 40 -289 75 -262 b 151 -239 124 -262 128 -232 b 340 296 356 -132 349 88 b 347 414 339 338 354 381 b 364 682 382 497 338 603 z "},"k":{"ha":661,"x_min":0,"x_max":0,"o":"m 610 94 b 506 307 628 194 513 217 b 388 529 454 376 415 449 b 467 700 379 608 432 639 b 554 843 485 760 593 769 b 451 899 513 844 497 914 b 374 813 413 883 383 854 b 239 653 315 769 292 703 b 239 843 226 713 226 783 b 224 889 232 857 253 889 b 93 904 138 960 104 949 b 82 651 76 840 106 706 b 81 464 71 585 103 528 b 74 339 89 419 32 381 b 58 0 79 229 100 97 b 136 -62 93 -18 75 -90 b 214 -64 160 -103 186 -56 b 207 47 225 -32 232 19 b 214 189 236 94 214 138 b 214 268 215 215 208 244 b 278 425 229 324 249 376 b 381 260 313 378 338 313 b 474 79 424 204 421 121 b 538 81 500 90 515 56 l 546 71 b 610 94 574 63 588 86 z "},"l":{"ha":561,"x_min":0,"x_max":0,"o":"m 476 69 b 460 165 499 103 472 138 b 194 164 374 251 286 133 b 201 386 176 229 197 310 l 185 400 b 193 614 199 468 190 553 b 215 850 189 696 232 771 b 138 897 199 888 160 869 b 58 840 99 913 76 863 b 60 165 60 606 60 401 b 28 56 25 138 25 96 b 139 -24 60 33 88 -32 b 335 29 199 29 264 1 b 476 69 378 56 449 8 z "},"m":{"ha":1176,"x_min":0,"x_max":0,"o":"m 11 165 l 18 157 l 11 150 b 72 63 32 119 32 76 b 200 111 125 56 175 72 b 308 256 246 147 261 221 b 546 63 381 199 481 132 b 663 103 604 49 638 69 b 758 260 696 149 714 219 b 971 7 849 204 900 92 b 1088 24 1007 21 1056 -22 b 979 244 1156 118 1010 161 b 931 307 972 275 926 272 b 853 410 886 318 894 382 b 726 488 843 461 776 478 b 617 361 654 468 676 400 b 538 274 590 339 575 285 b 332 425 467 317 396 379 b 200 410 294 431 229 449 b 11 164 175 304 78 238 z "},"n":{"ha":639,"x_min":0,"x_max":0,"o":"m 560 893 b 513 950 544 911 521 928 b 394 901 467 972 414 946 b 386 492 392 765 400 633 b 269 664 343 540 314 607 b 175 893 217 732 253 838 b 72 886 142 917 94 924 b 79 776 39 849 40 810 b 64 -18 61 506 117 247 b 165 -75 68 -79 133 -57 b 222 -43 192 -83 217 -65 l 206 169 b 204 232 194 194 229 210 b 221 326 221 260 207 299 b 213 397 182 347 231 378 b 222 483 204 421 196 464 b 317 343 256 444 281 388 b 378 224 340 304 326 249 b 378 168 390 210 390 182 b 410 -43 413 99 340 14 b 443 -36 421 -42 436 -50 l 449 -44 b 528 -28 475 -14 506 -69 b 528 67 553 4 513 39 b 511 131 499 86 535 107 b 514 231 536 164 501 192 b 521 264 518 242 536 256 b 519 357 499 294 526 329 b 560 893 535 536 522 714 z "},"o":{"ha":664,"x_min":0,"x_max":0,"o":"m 585 265 b 574 419 619 324 603 374 b 508 517 553 453 526 485 b 451 588 500 551 449 549 l 356 658 b 254 636 317 663 297 619 b 222 594 242 624 228 611 b 82 510 165 589 117 550 b 58 328 61 454 19 389 b 74 188 47 285 68 233 b 154 110 93 150 122 126 b 333 60 208 81 274 72 b 483 139 385 81 438 106 b 585 265 528 171 565 213 z m 443 289 b 333 211 413 246 385 217 b 263 188 315 186 288 190 b 192 249 233 197 203 215 b 201 410 190 303 185 363 b 278 485 214 443 236 469 b 435 392 354 514 394 433 b 443 290 443 360 461 324 z "},"p":{"ha":574,"x_min":0,"x_max":0,"o":"m 504 576 b 222 804 478 719 322 742 b 40 828 146 776 115 856 b -7 750 11 803 -3 786 b 94 663 -6 694 63 693 b 86 381 69 568 113 474 b 111 229 117 328 74 276 b 103 111 97 193 104 140 b 104 -157 139 17 104 -60 b 206 -186 131 -165 163 -201 b 268 -140 226 -172 269 -181 b 251 17 274 -94 258 -37 b 339 126 215 93 315 96 b 465 285 376 175 457 218 b 504 575 526 361 514 479 z m 356 488 b 331 354 368 444 364 382 b 276 251 338 303 294 292 l 260 251 b 269 646 251 388 243 514 b 357 574 308 647 336 601 b 354 488 343 540 378 517 z "},"q":{"ha":847,"x_min":0,"x_max":0,"o":"m 743 472 b 665 622 703 517 700 576 b 560 715 638 657 601 690 b 438 757 522 738 481 753 b 296 771 399 785 342 765 b 194 717 258 761 229 731 b 60 543 149 658 94 604 b 44 378 32 496 50 422 b 99 229 65 331 81 279 b 201 56 122 164 150 103 b 310 7 242 49 279 35 b 378 -11 347 17 367 7 b 421 -167 403 -51 390 -131 b 556 -260 432 -232 504 -244 b 696 -174 611 -254 660 -215 b 674 -71 707 -132 717 -93 b 579 -128 621 -33 607 -101 b 547 -17 554 -94 524 -58 b 681 118 510 86 657 42 b 757 276 743 160 757 215 b 744 472 756 340 739 410 z m 596 251 l 556 213 b 557 285 547 232 539 258 b 517 408 519 325 565 372 b 351 440 476 456 407 456 b 281 417 332 447 300 435 b 250 322 271 386 235 364 b 390 275 293 296 339 279 b 383 126 382 222 383 186 b 321 126 368 114 338 114 b 217 315 278 182 238 246 b 211 496 199 371 194 432 b 446 644 247 592 342 649 b 549 567 483 628 508 578 b 600 421 564 519 586 471 b 594 253 615 365 619 310 z "},"r":{"ha":772,"x_min":0,"x_max":0,"o":"m 728 75 l 721 75 b 596 225 692 136 632 175 b 453 424 538 294 488 346 b 524 644 500 485 524 560 b 358 776 472 681 426 764 b 75 800 278 864 179 768 b 21 675 57 758 14 728 b 60 540 78 654 51 578 b 68 343 72 479 65 408 b 82 83 96 267 76 161 b 217 36 118 47 161 26 b 240 272 356 79 186 183 b 350 297 283 263 313 289 b 586 21 421 188 522 132 b 697 13 624 -26 649 32 b 728 76 718 31 721 54 z m 351 636 b 233 424 388 536 292 479 b 218 589 226 479 247 533 b 225 638 231 601 222 621 l 217 644 b 351 638 243 704 318 665 z "},"s":{"ha":431,"x_min":0,"x_max":0,"o":"m 381 1029 b 247 1093 353 1076 306 1107 b 57 786 160 1007 96 899 b 119 292 -33 614 86 450 b 192 47 156 214 179 132 b 199 -10 183 22 225 13 b 169 -237 238 -86 201 -171 b 43 -222 125 -306 92 -208 b -6 -285 25 -243 -6 -257 b 33 -371 8 -314 -4 -351 b 113 -394 64 -371 83 -418 b 183 -401 133 -412 168 -392 l 192 -394 b 326 -275 278 -406 278 -322 b 364 -197 347 -254 331 -210 b 356 0 386 -133 358 -65 b 231 463 315 154 283 314 b 190 581 204 497 182 542 b 294 904 178 700 238 806 b 357 951 304 932 333 944 b 381 1029 392 967 376 1001 z "},"t":{"ha":761,"x_min":0,"x_max":0,"o":"m 699 135 b 604 222 660 161 667 235 b 525 143 551 206 576 158 b 422 167 492 151 443 124 b 390 403 403 249 394 317 b 439 410 403 431 418 406 b 556 433 464 453 517 425 b 667 489 582 478 647 428 b 597 600 663 540 628 568 b 471 567 544 632 517 571 b 399 553 446 543 418 588 b 429 819 396 636 396 740 b 376 875 415 840 404 875 b 274 899 356 918 307 890 b 225 806 246 871 229 840 b 240 582 267 735 211 656 b 176 511 244 526 215 514 b 67 506 142 510 100 515 b 14 450 42 499 22 483 b 53 363 19 418 31 389 b 217 363 107 363 167 328 b 233 290 238 344 233 317 b 249 192 282 258 201 222 b 281 83 251 153 263 115 b 360 0 299 49 326 19 b 469 -14 403 11 431 -17 b 651 39 525 14 606 -14 b 697 136 690 57 669 108 z "},"u":{"ha":719,"x_min":0,"x_max":0,"o":"m 638 568 b 621 606 625 581 621 593 b 636 686 621 632 636 660 b 551 782 629 733 593 761 b 457 725 519 765 485 751 b 497 576 458 669 483 625 b 471 357 492 501 490 425 b 378 214 456 301 428 253 b 369 215 375 215 372 215 b 331 189 353 215 342 200 b 310 189 324 189 317 189 b 219 229 272 189 236 199 b 188 400 199 279 188 342 b 196 481 188 428 190 456 b 189 546 192 500 189 522 b 228 663 189 588 199 633 b 232 675 231 667 232 671 b 204 731 231 699 204 710 b 204 733 204 731 204 732 b 110 788 188 774 147 782 b 61 756 94 781 74 774 b 44 717 47 743 44 731 b 47 671 44 703 47 689 b 39 513 47 611 43 565 b 46 482 44 504 46 493 b 44 438 47 467 44 451 b 49 418 44 431 46 424 b 44 372 46 403 44 388 b 79 151 44 300 65 224 b 239 60 115 96 176 60 b 275 64 250 60 263 61 b 318 40 286 46 301 40 b 399 56 347 40 379 56 b 403 56 400 56 401 56 b 408 56 403 56 406 56 b 424 64 415 56 422 57 b 447 78 432 68 440 78 b 457 72 451 79 454 78 b 531 132 482 88 508 108 b 589 246 563 164 586 203 b 626 397 614 290 622 343 b 636 568 631 454 629 513 z "},"v":{"ha":682,"x_min":0,"x_max":0,"o":"m 619 725 b 589 821 607 757 629 808 b 508 861 592 874 532 839 b 446 829 489 846 460 857 b 392 607 428 756 419 676 b 314 426 342 547 364 486 b 289 347 293 403 319 364 b 249 465 263 376 239 426 b 179 750 201 551 214 660 b 51 814 139 760 114 844 b 13 710 21 792 4 753 b 131 356 75 603 79 469 b 178 97 147 269 197 186 b 249 18 193 67 210 24 b 383 49 290 11 358 -11 b 414 189 367 106 408 140 b 510 506 440 299 489 394 b 619 725 546 578 558 663 z "},"w":{"ha":1176,"x_min":0,"x_max":0,"o":"m 1113 318 l 1106 326 l 1113 333 b 1051 419 1092 363 1092 406 b 924 372 999 428 949 411 b 815 226 878 335 863 261 b 578 419 743 283 643 350 b 461 379 519 433 486 413 b 365 224 428 335 410 264 b 153 475 275 278 224 390 b 36 458 117 461 68 504 b 144 238 -32 364 114 321 b 192 176 150 208 196 211 b 271 72 238 164 229 100 b 397 -6 281 21 347 4 b 507 121 469 14 447 82 b 586 208 533 143 549 197 b 790 57 656 165 726 103 b 924 72 829 51 894 33 b 1113 318 949 178 1046 244 z "},"x":{"ha":756,"x_min":0,"x_max":0,"o":"m 758 178 b 713 272 735 206 743 249 b 603 215 668 269 635 243 b 468 279 550 219 504 242 b 475 375 433 315 497 333 b 625 633 536 457 540 568 b 554 758 601 675 593 724 b 490 746 529 763 518 735 b 404 554 451 685 442 614 b 294 665 381 590 333 638 b 129 650 236 647 175 703 b -6 563 67 663 28 603 b 11 476 -11 529 6 506 b 271 507 94 332 160 554 b 318 335 321 464 301 392 b 276 225 303 297 279 267 b 185 43 232 171 232 96 b 158 -107 188 -12 108 -51 b 285 -129 192 -142 242 -125 b 342 36 314 -78 324 -19 b 397 144 360 71 382 106 b 514 75 436 122 464 74 b 640 51 546 43 603 71 b 760 179 688 89 751 110 z "},"y":{"ha":671,"x_min":0,"x_max":0,"o":"m 601 746 b 517 808 581 776 553 804 b 438 808 486 851 474 800 l 438 785 b 406 628 404 742 404 685 b 382 571 382 615 390 589 b 200 478 343 506 275 476 b 210 754 121 554 183 671 b 247 832 222 778 211 821 b 249 933 283 861 249 900 b 147 965 231 968 186 968 b 44 729 71 904 93 803 b 15 546 38 671 14 606 b 97 382 17 474 51 432 b 146 367 110 368 125 358 b 288 328 179 297 231 340 b 429 407 343 338 382 381 l 444 392 b 454 140 424 297 485 219 b 382 -42 456 79 461 -8 b 289 -26 350 -57 328 -15 b 179 79 244 -10 214 54 b 107 60 157 93 135 93 b 122 -43 76 22 129 -4 b 406 -183 208 -108 286 -200 b 565 -74 465 -175 531 -131 b 594 104 596 -21 593 46 b 571 360 597 193 592 281 b 564 517 575 406 544 476 b 571 635 531 560 593 594 b 603 744 593 667 593 707 z "},"z":{"ha":729,"x_min":0,"x_max":0,"o":"m 658 489 b 532 535 640 546 579 533 b 454 543 508 490 486 553 l 532 661 b 636 772 554 711 579 757 b 604 929 661 818 626 882 l 532 929 b 424 906 501 888 453 967 b 171 864 339 915 250 890 b 53 843 131 882 96 839 b 29 733 15 808 17 778 b 100 694 42 707 72 674 b 196 718 124 669 171 694 b 313 739 235 699 267 746 b 400 756 340 747 378 756 b 344 654 406 713 363 682 b 258 513 340 596 297 547 b 165 521 226 538 196 494 b 83 433 151 474 69 494 b 171 339 113 394 122 356 b 147 260 169 308 143 290 b 51 1 129 168 22 103 b 178 -47 76 -42 126 -56 b 526 56 271 44 404 40 b 596 64 544 46 582 38 b 565 196 622 111 588 157 b 461 197 535 232 489 197 b 313 172 417 176 351 204 b 265 181 297 175 278 167 b 328 306 286 224 288 272 b 446 378 314 394 413 342 b 636 363 506 360 576 381 b 658 489 713 378 653 446 z "},"{":{"ha":551,"x_min":0,"x_max":0,"o":"m 31 339 b 111 268 46 300 86 300 b 47 118 89 218 19 179 b 251 -40 82 39 168 -31 b 417 0 308 -31 383 -65 b 519 79 469 -1 488 43 b 496 142 506 97 517 126 b 285 79 396 174 390 29 b 196 157 257 111 203 108 b 213 197 194 174 199 188 b 339 221 261 192 303 172 l 354 221 b 417 308 376 235 425 265 b 314 394 394 351 364 388 l 307 385 b 181 388 265 408 221 322 b 172 488 167 417 139 458 b 221 535 189 506 190 538 b 361 519 257 506 317 508 b 426 583 364 568 431 529 b 275 843 344 644 292 743 b 307 857 286 850 294 865 b 396 803 329 822 364 821 b 496 858 428 822 467 826 b 479 936 514 885 499 915 b 410 976 454 944 426 949 b 174 946 331 967 233 1001 b 174 646 114 861 150 736 b 118 622 160 628 142 618 b 31 339 25 561 11 444 z "},"|":{"ha":396,"x_min":0,"x_max":0,"o":"m 101 3 b 164 -82 100 -21 138 -75 b 249 -93 204 -99 221 -100 b 274 10 272 -81 272 -7 b 229 531 274 35 228 500 b 250 571 231 544 235 558 b 242 590 243 576 242 583 b 253 624 242 603 251 613 b 244 642 253 629 251 636 b 294 979 281 758 265 863 b 222 1032 283 1014 253 1031 b 121 957 178 1033 128 1007 b 121 821 126 914 125 867 b 117 729 121 789 118 758 b 115 690 115 715 114 701 b 103 22 97 611 139 94 b 101 3 101 17 101 8 z "},"}":{"ha":551,"x_min":0,"x_max":0,"o":"m 511 339 b 424 622 531 444 517 561 b 368 646 400 618 382 628 b 368 946 392 736 428 861 b 132 976 308 1001 211 967 b 63 936 115 949 88 944 b 46 858 43 915 28 885 b 146 803 75 826 114 822 b 235 857 178 821 213 822 b 267 843 247 865 256 850 b 115 583 250 743 197 644 b 181 519 111 529 178 568 b 321 535 225 508 285 506 b 369 488 351 538 353 506 b 361 388 403 458 375 417 b 235 385 321 322 276 408 l 228 394 b 125 308 178 388 147 351 b 188 221 117 265 165 235 l 203 221 b 329 197 239 172 281 192 b 346 157 343 188 347 174 b 257 79 339 108 285 111 b 46 142 151 29 146 174 b 22 79 25 126 36 97 b 125 0 54 43 72 -1 b 290 -40 158 -65 233 -31 b 494 118 374 -31 460 39 b 431 268 522 179 453 218 b 511 339 456 300 496 300 z "},"~":{"ha":526,"x_min":0,"x_max":0,"o":"m 481 504 b 481 582 493 525 493 560 b 332 551 422 617 385 556 b 300 638 310 575 310 608 l 253 686 b 175 669 218 703 210 651 b 40 503 106 639 50 581 b 175 435 64 453 111 418 b 215 489 183 453 189 482 b 354 433 250 446 300 435 b 481 503 399 468 442 456 z "},"":{"ha":890,"x_min":0,"x_max":0,"o":"m 774 544 b 764 568 783 556 779 567 l 600 589 b 557 615 585 592 565 603 l 458 760 b 431 757 450 772 438 771 l 344 594 b 304 565 338 581 319 568 l 135 536 b 129 513 121 533 118 522 l 282 374 b 303 326 293 363 303 342 l 301 119 b 324 107 301 104 311 99 l 481 218 b 528 221 493 226 514 228 l 679 144 b 697 160 693 138 701 144 l 649 358 b 661 407 646 374 651 396 l 774 544 z "},"":{"ha":679,"x_min":0,"x_max":0,"o":"m 576 381 l 478 451 b 450 494 465 460 453 479 l 429 613 b 401 625 426 628 414 633 l 276 546 b 228 542 264 539 242 536 l 136 576 b 121 561 122 582 115 575 l 164 446 b 160 396 169 431 168 408 l 76 254 b 89 232 68 240 74 231 l 240 246 b 283 225 256 247 275 238 l 349 132 b 374 135 358 119 369 121 l 418 278 b 453 313 424 292 439 307 l 572 354 b 576 379 588 360 589 371 z "},"":{"ha":503,"x_min":0,"x_max":0,"o":"m 403 468 b 388 493 410 482 403 493 l 303 490 b 263 514 288 489 269 500 l 222 585 b 200 581 214 597 204 596 l 174 479 b 140 442 169 464 154 447 l 76 421 b 72 396 61 417 60 406 l 140 346 b 163 301 151 336 163 317 l 167 203 b 192 190 168 188 179 182 l 263 239 b 310 242 275 247 296 249 l 358 215 b 374 226 371 207 378 213 l 347 317 b 350 367 342 331 343 353 l 403 468 z "},"":{"ha":435,"x_min":0,"x_max":0,"o":"m 354 365 l 313 396 b 285 440 300 406 288 425 l 276 492 b 250 503 275 506 263 511 l 193 467 b 144 461 181 458 158 456 l 110 475 b 94 460 96 481 89 474 l 113 410 b 110 360 118 394 117 372 l 69 292 b 83 269 63 278 68 268 l 151 276 b 194 256 167 278 186 268 l 221 217 b 244 219 229 204 240 206 l 265 286 b 299 322 269 300 285 317 l 350 340 b 353 365 364 346 365 357 z "},"":{"ha":328,"x_min":0,"x_max":0,"o":"m 240 354 b 231 376 250 367 246 376 l 197 375 b 151 396 182 375 161 385 l 146 403 b 117 399 135 414 122 413 l 111 386 b 74 354 106 371 89 357 l 54 350 b 51 331 39 346 38 338 l 74 321 b 100 282 86 315 99 297 l 100 274 b 128 257 101 258 114 251 l 150 268 b 201 269 164 274 188 275 l 211 267 b 225 282 225 261 232 268 l 221 290 b 228 338 215 304 218 325 l 240 354 z "},"":{"ha":1049,"x_min":0,"x_max":0,"o":"m 1026 990 b 988 1089 1014 1022 1011 1061 b 917 1189 981 1132 940 1157 b 829 1197 886 1186 856 1246 b 592 1007 731 1175 647 1092 b 558 926 599 974 556 957 b 508 818 517 899 547 844 b 328 942 428 822 388 900 b 250 913 290 953 279 917 b 233 824 232 888 226 857 b 308 758 261 804 265 750 b 508 597 363 688 492 700 b 444 365 478 524 501 432 b 397 378 428 364 410 358 b 254 392 340 354 314 419 b 131 360 222 406 160 393 b 46 204 54 343 63 261 b 204 10 67 122 122 46 b 525 143 344 -14 429 75 b 774 -31 615 111 694 24 b 883 -29 806 -46 857 -46 l 864 49 b 594 275 774 144 694 190 b 589 335 581 297 614 315 b 647 642 646 425 617 544 b 817 707 694 681 779 647 b 1003 878 892 740 967 799 b 1025 990 1015 913 1029 958 z m 879 1028 b 781 863 893 949 818 924 b 693 857 744 876 706 803 b 879 1028 732 928 774 1039 z m 353 218 b 231 163 321 196 286 153 b 194 214 208 175 197 192 b 288 243 226 224 257 233 b 351 218 293 211 338 250 z "},"":{"ha":728,"x_min":0,"x_max":0,"o":"m 672 431 b 601 501 668 465 624 489 b 554 532 579 494 571 522 b 603 604 563 560 579 585 b 615 742 632 647 631 696 b 554 854 603 782 578 821 b 414 974 515 899 475 968 l 389 997 b 281 997 344 976 314 1038 b 131 918 194 1019 197 938 b 51 717 94 857 68 789 b 35 431 32 628 26 531 b 124 126 60 329 85 224 b 311 -136 165 25 222 -68 b 429 -200 354 -149 381 -204 b 485 -135 486 -222 471 -161 b 390 -57 468 -90 433 -72 b 288 67 344 -29 306 18 b 513 108 369 61 446 75 b 640 210 561 131 604 165 b 674 432 656 283 721 354 z m 486 683 b 414 600 468 649 443 621 b 264 550 371 568 318 551 b 171 494 235 525 193 535 l 163 463 b 250 849 157 607 196 731 b 446 817 300 921 411 885 b 485 683 467 776 478 731 z m 554 385 b 539 289 582 349 536 324 b 440 217 510 256 476 232 b 328 189 404 201 367 193 b 247 299 281 213 322 296 b 200 281 228 303 215 288 b 186 392 194 317 163 351 b 176 425 171 399 179 414 b 414 439 254 389 344 386 b 554 386 475 457 519 414 z "},"":{"ha":710,"x_min":0,"x_max":0,"o":"m 646 251 b 551 519 694 360 611 449 b 443 597 521 542 478 567 l 465 621 b 513 890 513 699 569 808 b 300 960 481 993 367 947 b 126 889 242 933 181 917 b 96 881 118 882 103 864 b 49 826 78 868 38 854 b 63 700 -15 793 83 754 b 96 289 38 558 74 422 b 119 133 126 238 99 190 b 261 -8 154 83 201 14 b 347 -1 293 -12 322 -37 b 646 250 489 3 594 133 z m 379 810 b 261 653 358 742 328 685 l 214 651 b 301 793 225 706 243 765 b 379 808 332 785 346 822 z m 513 367 b 364 146 508 265 451 190 l 285 146 b 219 446 239 238 242 344 b 513 367 311 471 446 449 z "},"":{"ha":796,"x_min":0,"x_max":0,"o":"m 732 285 b 722 469 742 346 744 414 b 661 547 710 500 690 526 b 556 593 622 554 596 588 b 457 606 525 607 490 621 b 404 619 439 613 424 635 b 325 593 372 642 350 606 b 208 593 288 651 260 564 b 89 475 161 557 110 533 b 64 304 82 417 53 361 b 89 158 42 251 71 204 b 143 94 99 129 143 129 b 254 42 182 82 211 46 b 346 22 281 25 319 19 b 436 24 378 38 407 21 l 463 42 b 608 107 517 53 569 71 b 675 169 640 122 660 144 b 731 285 696 207 707 250 z m 625 383 b 567 246 618 335 597 286 b 422 147 531 199 481 163 b 253 165 365 147 294 108 b 186 213 225 168 199 188 b 218 449 158 292 178 381 b 285 482 232 467 267 463 b 389 468 310 486 367 503 b 500 500 431 489 479 435 b 567 471 525 493 547 483 b 626 383 597 453 619 425 z m 385 292 b 371 376 400 318 386 351 b 275 396 336 372 315 408 b 254 285 244 368 240 321 b 353 251 288 274 317 253 b 385 290 364 264 382 274 z "},"":{"ha":668,"x_min":0,"x_max":0,"o":"m 626 613 b 500 750 585 658 575 740 b 449 796 490 779 469 778 b 286 817 399 811 344 819 b 253 796 272 808 268 789 b 88 658 207 740 131 721 b 49 376 17 581 32 475 b 233 231 83 292 164 263 b 376 251 279 238 340 215 b 593 454 489 251 558 364 b 626 611 624 499 643 556 z m 501 585 b 318 342 485 479 428 372 b 239 328 296 325 267 328 b 149 447 186 353 164 396 b 225 617 140 517 178 569 b 376 690 260 681 383 596 b 475 636 417 708 450 657 b 501 583 483 618 500 603 z m 468 524 b 424 615 467 560 446 588 b 297 556 372 619 304 619 b 357 485 306 529 329 500 b 468 524 403 478 439 490 z "},"":{"ha":611,"x_min":0,"x_max":0,"o":"m 528 813 b 508 886 533 844 521 865 b 371 910 472 925 415 919 b 332 854 350 899 343 876 b 349 757 319 815 340 783 b 381 719 353 733 372 736 b 486 735 421 711 446 718 b 528 813 514 758 518 781 z m 244 853 b 213 917 232 878 219 888 b 165 933 197 928 181 928 b 64 889 128 953 89 921 b 47 850 58 875 61 858 b 53 822 40 840 46 825 b 89 731 60 776 81 746 b 178 725 117 711 149 715 b 229 775 201 711 233 767 b 244 806 226 800 235 794 b 244 853 254 821 240 835 z "},"":{"ha":414,"x_min":0,"x_max":0,"o":"m 343 522 b 282 700 360 586 299 644 b 251 710 274 707 263 721 b 160 674 204 753 199 660 b 97 724 154 701 119 710 b 106 524 -19 685 133 594 b 175 451 119 497 128 444 b 218 542 199 475 213 506 b 222 603 213 561 199 596 b 267 461 269 565 219 504 b 332 450 286 457 311 444 b 344 524 326 481 368 496 z "},"":{"ha":1581,"x_min":0,"x_max":0,"o":"m 1515 618 b 1388 757 1472 665 1463 747 b 1338 803 1379 786 1358 785 b 1174 822 1286 817 1232 825 b 1142 803 1161 815 1157 796 b 976 664 1096 746 1019 726 b 936 383 904 588 919 482 b 1121 238 971 299 1051 269 b 1265 258 1168 244 1229 222 b 1481 461 1376 258 1446 371 b 1515 618 1513 506 1532 563 z m 740 285 b 668 546 754 379 751 489 b 564 593 631 554 604 588 b 464 604 532 606 497 619 b 413 618 447 611 432 633 b 333 593 381 642 358 606 b 215 593 294 651 267 564 b 97 475 169 557 118 533 b 71 304 89 417 60 361 b 97 158 50 251 79 204 b 150 93 106 128 150 128 b 263 42 190 82 219 46 b 353 22 288 25 326 19 b 444 22 386 36 415 19 l 471 42 b 615 107 524 53 585 64 b 740 283 694 142 700 225 z m 1389 592 b 1207 349 1374 486 1317 379 b 1128 335 1185 332 1156 335 b 1036 454 1074 360 1051 403 b 1114 624 1029 524 1067 576 b 1265 697 1149 688 1272 603 b 1363 643 1304 715 1338 664 b 1389 590 1371 625 1388 610 z m 635 379 b 432 144 619 274 539 172 b 263 161 375 143 304 104 b 194 210 233 165 207 185 b 228 444 168 288 188 376 b 294 479 242 464 276 460 b 397 464 318 482 375 499 b 510 497 440 486 489 432 b 633 379 571 478 622 449 z m 1356 531 b 1311 622 1354 567 1333 594 b 1185 563 1260 626 1192 626 b 1244 492 1193 536 1217 507 b 1356 531 1290 485 1326 497 z m 392 288 b 378 374 407 315 393 349 b 281 393 342 369 321 406 b 261 282 251 365 247 318 b 358 247 293 269 322 249 b 390 288 369 261 388 271 z "},"":{"ha":675,"x_min":0,"x_max":0,"o":"m 610 444 b 583 557 633 494 594 514 b 503 538 554 557 521 561 b 451 499 481 531 478 496 l 419 589 b 268 515 339 624 322 531 b 150 457 260 447 186 486 b 19 393 94 465 50 432 b 64 319 19 361 40 328 b 176 360 93 343 144 333 b 197 268 176 328 183 299 b 281 228 215 247 242 214 b 322 360 349 261 253 325 b 368 326 343 363 353 338 b 413 196 361 283 369 229 b 465 214 433 193 451 196 b 464 286 483 240 454 258 b 538 274 481 315 510 268 b 536 400 586 313 557 358 b 608 444 558 422 579 443 z "},"":{"ha":671,"x_min":0,"x_max":0,"o":"m 471 707 l 471 890 l 308 890 l 308 707 l 471 707 z m 592 0 l 592 168 l 250 168 l 250 326 l 396 326 b 471 401 396 326 471 326 l 471 628 l 308 628 l 308 503 l 146 503 b 79 419 146 503 79 503 l 79 100 b 167 0 79 13 167 0 l 592 0 z "},"":{"ha":325,"x_min":0,"x_max":0,"o":"m 254 707 l 254 890 l 79 890 l 79 707 l 254 707 z m 254 0 l 254 622 l 79 622 l 79 0 l 254 0 z "},"":{"ha":981,"x_min":0,"x_max":0,"o":"m 871 458 b 485 844 871 672 699 844 b 99 458 271 844 99 672 b 485 74 99 246 271 74 b 871 458 699 72 871 244 z m 794 558 l 646 400 l 681 185 l 483 278 l 290 178 l 317 394 l 163 547 l 376 589 l 475 783 l 579 592 l 794 558 z "},"":{"ha":981,"x_min":0,"x_max":0,"o":"m 949 458 b 486 922 949 715 742 922 b 22 460 229 922 22 715 b 483 -4 21 203 228 -4 b 947 458 740 -4 947 203 z m 854 458 b 485 89 854 254 689 89 b 114 458 279 89 114 254 b 482 829 113 664 278 829 b 853 460 688 829 853 664 z m 790 460 b 481 769 790 631 651 769 b 172 460 311 769 172 631 b 483 151 174 290 313 151 b 792 461 653 151 792 290 z m 731 542 l 613 414 l 640 243 l 482 317 l 328 238 l 349 410 l 225 533 l 397 565 l 475 721 l 558 568 l 731 542 z "},"":{"ha":981,"x_min":0,"x_max":0,"o":"m 936 458 b 489 906 936 706 736 906 b 42 458 240 906 42 706 b 486 11 40 211 239 11 b 935 458 735 11 935 211 l 936 458 z m 854 589 l 672 619 b 588 688 650 649 621 672 l 504 849 b 854 589 667 840 803 735 z m 876 458 b 731 154 876 335 819 225 l 703 349 b 724 415 713 369 719 392 l 864 560 b 876 458 872 528 876 493 z m 481 849 l 397 690 b 306 619 363 675 331 650 l 117 586 b 482 849 169 738 313 846 z m 644 339 l 643 339 b 506 265 618 294 557 265 b 310 456 388 265 310 340 b 507 646 310 572 388 646 b 635 579 549 646 615 625 l 575 540 b 499 574 558 560 531 574 b 396 454 435 574 396 524 b 497 339 397 389 436 339 b 575 381 529 339 557 356 l 644 339 z m 706 135 b 489 68 644 93 569 68 b 274 132 408 68 335 92 l 440 214 b 490 208 457 210 474 208 b 544 215 510 208 528 211 l 706 135 z m 282 339 l 254 144 b 97 458 158 215 97 329 b 113 568 97 496 103 533 l 254 424 b 282 340 258 393 268 365 z "},"":{"ha":981,"x_min":0,"x_max":0,"o":"m 794 558 l 579 592 l 475 783 l 376 589 l 163 547 l 317 394 l 290 178 l 483 278 l 681 185 l 646 400 l 794 558 z "},"":{"ha":788,"x_min":0,"x_max":0,"o":"m 719 571 l 610 682 l 403 475 b 388 299 339 411 325 361 l 606 82 l 711 186 l 526 378 l 719 571 z m 401 571 l 292 682 l 83 475 b 69 299 21 411 7 361 l 288 82 l 393 186 l 208 378 l 401 571 z "},"":{"ha":788,"x_min":0,"x_max":0,"o":"m 719 299 b 706 475 782 363 768 413 l 497 682 l 388 571 l 581 378 l 396 186 l 501 82 l 719 299 z m 401 299 b 388 475 464 363 450 413 l 178 682 l 69 571 l 263 378 l 78 186 l 183 82 l 401 299 z "},"":{"ha":1276,"x_min":0,"x_max":0,"o":"m 1138 233 l 1058 303 l 972 311 b 876 225 915 317 903 256 b 907 82 881 185 864 115 b 1067 51 947 39 1013 38 b 1138 233 1125 97 1149 158 z m 758 122 b 742 225 776 156 758 194 b 538 296 699 307 610 304 b 499 97 476 240 492 172 b 664 43 540 46 610 38 b 743 100 699 58 718 74 b 760 122 742 111 746 125 z m 382 146 l 375 154 b 296 303 414 221 325 263 b 124 233 224 339 164 281 l 124 122 b 321 68 168 56 250 51 b 382 146 333 107 386 100 z "},"":{"ha":379,"x_min":0,"x_max":0,"o":""},"":{"ha":1161,"x_min":0,"x_max":0,"o":"m 1100 440 b 1072 513 1099 468 1082 494 b 758 615 965 536 876 624 b 588 604 701 592 643 628 b 521 611 565 607 543 631 b 372 596 475 617 413 632 b 267 572 338 604 304 572 b 85 453 207 532 139 513 b 10 392 58 440 26 425 b 36 304 14 360 -4 304 b 200 408 99 317 139 396 b 450 496 281 449 356 503 b 571 503 488 507 531 501 b 681 506 611 535 640 475 b 881 469 744 483 818 496 b 1046 397 939 458 990 417 b 1100 440 1071 389 1090 415 z "},"":{"ha":1392,"x_min":0,"x_max":0,"o":"m 1296 476 b 1200 529 1274 506 1233 518 b 976 625 1132 581 1051 593 b 851 638 933 621 892 649 b 674 638 803 667 729 646 b 594 625 646 654 621 629 b 392 618 526 642 460 601 b 25 488 250 614 151 522 b -3 415 15 468 -3 442 b 65 381 11 393 36 369 b 257 465 131 404 188 449 b 489 518 328 496 417 492 b 622 528 540 493 572 554 b 765 532 669 531 721 540 b 1065 474 876 550 969 506 b 1269 389 1140 467 1194 394 b 1296 476 1318 393 1293 444 z "},"":{"ha":544,"x_min":0,"x_max":0,"o":"m 265 831 b 200 943 272 879 239 918 b 81 869 147 935 114 907 b 42 797 76 842 68 815 b 36 733 60 776 38 754 b 96 613 4 675 63 646 b 175 613 118 603 151 603 b 147 711 197 643 165 682 b 194 783 165 735 163 765 l 213 771 b 265 831 247 779 249 804 z m 499 789 b 433 901 506 838 472 876 b 314 828 365 915 347 865 b 269 692 300 776 272 746 b 329 571 275 640 296 604 b 408 571 351 561 385 561 b 381 669 431 601 399 640 b 428 742 399 693 396 724 l 446 729 b 499 789 481 738 482 763 z "},"":{"ha":528,"x_min":0,"x_max":0,"o":"m 238 699 b 179 857 219 746 219 821 b 108 907 154 878 139 907 b 7 813 79 907 7 868 b 114 674 7 756 94 725 b 67 613 83 660 96 626 b 60 592 63 606 60 599 b 118 539 60 563 88 539 b 240 681 179 539 240 625 b 238 699 240 686 239 693 z m 472 756 b 479 783 478 765 479 775 b 439 893 479 822 439 850 b 353 939 419 922 386 939 b 256 840 308 939 256 896 b 349 724 256 790 349 781 b 294 649 349 686 294 682 b 353 596 294 619 322 596 b 475 738 414 596 475 682 b 472 756 475 743 474 750 z "},"":{"ha":315,"x_min":0,"x_max":0,"o":"m 265 831 b 200 943 272 879 239 918 b 81 869 147 935 114 907 b 42 797 76 842 68 815 b 36 733 60 776 38 754 b 96 613 4 675 63 646 b 175 613 118 603 151 603 b 147 711 197 643 165 682 b 194 783 165 735 163 765 l 213 771 b 265 831 247 779 249 804 z "},"":{"ha":279,"x_min":0,"x_max":0,"o":"m 238 699 b 204 836 267 753 201 783 b 93 882 172 861 143 897 b 35 824 71 860 42 860 b 114 674 -15 739 90 736 b 67 613 83 660 96 626 b 88 547 53 590 64 561 b 206 594 135 521 179 563 b 238 699 219 625 249 661 z "},"":{"ha":592,"x_min":0,"x_max":0,"o":"m 400 663 b 303 758 399 715 356 758 b 207 663 250 758 207 715 b 301 565 206 608 249 565 b 399 661 356 565 399 608 z m 511 331 l 511 475 l 74 475 l 74 331 l 511 331 z m 397 136 b 303 233 399 190 356 233 b 206 138 249 233 206 190 b 300 40 204 83 247 40 b 397 136 354 40 397 83 z "},"":{"ha":1236,"x_min":0,"x_max":0,"o":"m 1129 239 b 1129 646 1131 424 1119 479 b 1061 679 1144 622 1110 686 b 1004 635 1043 676 1024 664 b 1000 467 983 621 1021 479 l 1006 461 b 1004 369 985 429 1014 396 b 985 210 1018 324 1011 254 l 481 211 b 401 225 461 229 422 226 l 389 239 b 447 290 401 258 426 275 b 525 315 482 276 497 311 b 507 421 549 354 517 388 b 290 315 411 442 357 349 b 192 243 247 301 243 239 b 138 199 168 235 158 207 b 160 121 124 171 142 142 b 308 -4 218 99 257 29 b 521 -117 396 -18 429 -136 b 533 -31 564 -97 518 -64 b 389 94 506 29 426 43 b 514 93 425 139 463 69 b 604 114 531 110 582 88 b 697 93 628 106 679 129 b 764 106 725 82 738 113 b 886 100 807 115 846 119 b 1103 113 954 115 1024 113 b 1129 239 1125 149 1149 200 z "},"":{"ha":1236,"x_min":0,"x_max":0,"o":"m 1167 622 b 1108 701 1174 660 1129 686 b 714 931 968 757 828 824 b 636 910 690 940 651 943 b 643 838 638 886 631 858 b 807 733 701 800 747 772 b 881 682 825 703 871 722 l 865 668 b 340 674 690 669 519 663 b 189 674 288 650 238 692 b -62 674 6 674 15 674 b -92 615 -76 660 -89 636 b -14 569 -97 585 -79 557 b 176 583 44 583 125 568 b 296 575 213 571 264 576 l 668 564 l 675 569 b 839 558 728 546 788 592 b 589 438 767 506 683 454 b 610 332 586 407 564 350 b 669 361 636 328 654 343 l 969 517 b 1082 542 1011 517 1033 557 b 1167 624 1108 576 1138 585 z "},"":{"ha":668,"x_min":0,"x_max":0,"o":"m 626 613 b 500 750 585 658 575 740 b 449 796 490 779 469 778 b 286 817 399 811 344 819 b 253 796 272 808 268 789 b 88 658 207 740 131 721 b 49 376 17 581 32 475 b 233 231 83 292 164 263 b 376 251 279 238 340 215 b 593 454 489 251 558 364 b 626 611 624 499 643 556 z m 501 585 b 318 342 485 479 428 372 b 239 328 296 325 267 328 b 149 447 186 353 164 396 b 225 617 140 517 178 569 b 376 690 260 681 383 596 b 475 636 417 708 450 657 b 501 583 483 618 500 603 z m 468 524 b 424 615 467 560 446 588 b 297 556 372 619 304 619 b 357 485 306 529 329 500 b 468 524 403 478 439 490 z "},"":{"ha":668,"x_min":0,"x_max":0,"o":"m 626 613 b 500 750 585 658 575 740 b 449 796 490 779 469 778 b 286 817 399 811 344 819 b 253 796 272 808 268 789 b 88 658 207 740 131 721 b 49 376 17 581 32 475 b 233 231 83 292 164 263 b 376 251 279 238 340 215 b 593 454 489 251 558 364 b 626 611 624 499 643 556 z m 501 585 b 318 342 485 479 428 372 b 239 328 296 325 267 328 b 149 447 186 353 164 396 b 225 617 140 517 178 569 b 376 690 260 681 383 596 b 475 636 417 708 450 657 b 501 583 483 618 500 603 z m 468 524 b 424 615 467 560 446 588 b 297 556 372 619 304 619 b 357 485 306 529 329 500 b 468 524 403 478 439 490 z "},"":{"ha":1022,"x_min":0,"x_max":0,"o":"m 1168 486 l 1168 510 l 968 510 b 513 986 961 771 760 982 l 513 1111 l 489 1111 l 489 986 b 42 510 244 978 47 768 l -186 510 l -186 486 l 40 486 b 489 10 46 228 244 18 l 489 -243 l 513 -243 l 513 10 b 968 485 761 14 963 225 l 1168 486 z m 944 510 l 513 510 l 513 961 b 943 510 747 957 938 757 z m 488 510 l 63 510 b 488 961 68 754 256 953 l 488 510 z m 943 486 b 510 35 938 239 746 39 l 511 486 l 943 486 z m 488 35 b 63 486 256 43 68 242 l 488 486 l 488 35 z "},"":{"ha":619,"x_min":0,"x_max":0,"o":"m 446 -58 b 446 -39 446 -53 446 -46 b 397 197 414 33 410 117 b 397 238 397 210 397 224 b 397 328 397 267 397 297 b 406 465 397 375 399 422 b 310 544 400 514 354 544 b 232 496 278 544 247 529 b 263 157 256 378 233 274 b 256 140 258 151 256 146 b 264 103 256 128 264 115 b 254 88 264 99 261 93 b 274 44 269 72 274 58 b 257 -39 274 15 257 -12 b 288 -87 257 -56 264 -72 b 390 -112 325 -87 351 -112 b 413 -110 397 -112 404 -111 b 446 -58 440 -103 446 -82 z "}," ":{"ha":379,"x_min":0,"x_max":0,"o":""},"":{"ha":524,"x_min":0,"x_max":0,"o":"m 471 944 b 467 1010 479 975 482 989 b 381 1042 449 1032 417 1043 b 322 1010 360 1035 335 1031 b 131 881 251 975 207 911 l 117 878 b 54 813 85 861 50 850 b 94 751 56 788 76 771 b 197 768 135 744 168 753 b 344 868 250 794 292 842 b 394 900 357 861 389 907 b 471 944 432 913 439 924 z "},"":{"ha":607,"x_min":0,"x_max":0,"o":"m 572 754 b 572 815 572 775 590 797 b 494 892 572 858 514 857 b 386 996 453 919 424 964 b 285 1036 360 1019 329 1036 b 193 949 232 1028 232 968 b 156 889 197 922 153 914 b 68 768 119 850 76 815 b 78 697 22 739 92 731 b 115 685 88 686 100 682 b 211 725 144 704 185 699 b 278 835 232 764 274 789 b 315 868 301 836 300 857 b 367 828 333 858 354 846 l 374 828 b 421 778 385 801 418 807 b 514 728 440 751 475 726 b 572 754 531 742 556 739 z "},"":{"ha":656,"x_min":0,"x_max":0,"o":"m 615 893 b 568 976 621 929 597 957 b 472 960 536 983 497 983 b 472 900 461 944 461 917 b 456 842 479 881 479 850 b 368 889 426 857 394 865 l 356 913 b 260 1015 322 946 311 1004 b 132 1000 217 1035 169 1018 b 60 893 90 979 75 932 b 43 774 31 864 31 811 b 119 733 63 750 89 735 b 192 821 153 756 172 788 b 208 857 199 832 194 853 b 292 750 235 818 265 788 l 308 750 b 524 711 364 689 444 717 b 604 801 574 717 574 772 z "},"":{"ha":575,"x_min":0,"x_max":0,"o":"m 560 890 b 506 925 544 910 525 918 l 335 929 b 131 933 271 907 197 933 b 19 886 89 933 50 924 b 11 868 21 879 18 872 b 81 775 -11 811 56 810 b 135 790 101 763 119 779 b 356 794 210 774 281 804 b 551 810 421 799 496 767 b 560 890 549 839 574 861 z "},"":{"ha":568,"x_min":0,"x_max":0,"o":"m 556 908 b 504 1028 560 958 568 1017 b 342 939 436 1035 408 940 b 258 949 313 917 276 922 b 100 1025 201 949 168 1061 b 38 951 61 1025 57 1000 b 104 836 65 867 79 864 b 303 758 153 800 236 747 b 403 788 338 765 376 757 b 511 838 454 771 471 822 b 556 908 526 853 540 875 z "},"":{"ha":319,"x_min":0,"x_max":0,"o":"m 314 871 b 274 868 300 888 288 885 b 221 918 249 871 240 906 b 160 922 200 938 181 914 b 21 808 108 889 57 868 b 50 672 4 756 40 717 b 119 618 63 635 92 625 b 293 738 186 617 249 681 b 303 836 310 771 304 800 b 314 871 317 844 324 856 z "},"":{"ha":539,"x_min":0,"x_max":0,"o":"m 513 900 b 428 926 490 925 450 953 b 360 974 386 932 392 953 b 258 981 326 1003 294 967 b 151 917 222 957 186 939 b 31 801 106 889 64 856 b 78 593 1 721 63 661 b 193 508 99 533 146 521 b 283 529 224 508 254 515 b 415 596 324 547 375 567 b 479 694 449 621 474 651 b 506 815 507 744 507 760 b 513 900 528 829 528 876 z m 346 765 b 338 736 346 750 346 749 b 251 688 315 713 285 686 b 217 710 238 690 224 693 b 203 764 213 728 194 743 b 271 811 221 789 246 797 b 301 808 282 807 292 817 b 328 789 311 804 315 789 b 338 786 335 796 331 793 b 346 765 346 767 351 768 z "},"":{"ha":613,"x_min":0,"x_max":0,"o":"m 114 -231 b 157 -283 124 -249 146 -262 b 204 -301 176 -286 197 -308 b 343 -287 250 -293 299 -325 b 450 -225 388 -271 421 -264 b 469 -32 518 -197 517 -21 b 392 79 446 60 426 43 b 325 118 367 82 350 132 b 258 128 296 133 282 147 b 246 32 218 96 243 82 b 328 -53 251 -8 324 -15 b 344 -83 332 -62 340 -71 b 268 -157 346 -140 297 -135 b 115 -126 218 -143 154 -76 b 100 -164 107 -131 107 -160 b 114 -231 94 -190 47 -228 z "},"":{"ha":632,"x_min":0,"x_max":0,"o":"m 254 810 b 263 821 263 803 258 831 l 271 833 b 388 950 297 849 365 925 b 385 1032 379 978 393 1004 b 324 1071 369 1056 349 1072 b 282 1032 308 1063 290 1058 b 144 874 231 989 199 910 l 133 869 b 89 789 111 850 86 835 b 118 715 90 758 106 738 b 192 735 147 706 171 717 b 254 810 229 767 217 778 z m 435 914 b 428 901 426 921 433 892 l 421 889 b 308 751 396 871 328 779 b 318 671 319 725 307 697 b 382 638 336 649 358 633 b 421 681 397 647 415 654 b 544 850 468 726 493 808 l 554 854 b 592 939 575 876 599 893 b 557 1011 588 969 571 989 b 485 985 528 1017 504 1004 b 435 914 450 949 469 949 z "},"":{"ha":588,"x_min":0,"x_max":0,"o":"m 579 -219 b 583 -151 647 -206 593 -176 b 561 -118 575 -149 571 -121 b 407 -150 513 -76 457 -143 b 317 -92 374 -133 324 -149 b 329 -58 318 -79 325 -71 b 381 35 328 -22 381 -6 b 354 125 375 83 399 100 b 285 104 326 140 314 124 b 221 56 257 114 247 63 b 178 -62 190 14 189 31 b 228 -247 128 -60 153 -232 b 347 -290 264 -281 300 -282 b 494 -279 400 -319 446 -279 b 579 -219 524 -254 571 -237 z "},"":{"ha":696,"x_min":0,"x_max":0,"o":"m 582 921 b 574 983 624 946 561 954 b 539 994 564 993 553 996 b 451 961 513 978 476 983 b 389 865 432 926 393 906 b 354 836 367 864 368 846 b 307 872 338 846 318 856 l 301 872 b 258 917 292 896 261 892 b 175 963 240 940 210 963 b 121 940 158 950 136 953 b 119 886 121 922 104 903 b 189 818 118 849 172 849 b 299 715 232 790 258 744 b 378 689 319 700 344 689 b 464 764 426 696 428 747 b 499 817 461 788 501 794 b 582 921 532 849 572 879 z "}}}
